<?xml version="1.0" encoding="UTF-8"?>
<!DOCTYPE svg PUBLIC "-//W3C//DTD SVG 1.1//EN" "http://www.w3.org/Graphics/SVG/1.1/DTD/svg11.dtd">
<!-- Creator: CorelDRAW 2021 (64-Bit) -->
<svg xmlns="http://www.w3.org/2000/svg" xml:space="preserve" width="160mm" height="95mm" version="1.1" style="shape-rendering:geometricPrecision; text-rendering:geometricPrecision; image-rendering:optimizeQuality; fill-rule:evenodd; clip-rule:evenodd"
viewBox="0 0 16000 9500"
 xmlns:xlink="http://www.w3.org/1999/xlink"
 xmlns:xodm="http://www.corel.com/coreldraw/odm/2003">
 <defs>
  <style type="text/css">
   <![CDATA[
    .fil4 {fill:#FEFEFE}
    .fil0 {fill:#B2B3B3}
    .fil5 {fill:#9D9E9E}
    .fil1 {fill:#EF7F1A}
    .fil2 {fill:#FEFEFE;fill-rule:nonzero}
    .fil3 {fill:#9D9E9E;fill-rule:nonzero}
   ]]>
  </style>
 </defs>
 <g id="Layer_x0020_1">
  <metadata id="CorelCorpID_0Corel-Layer"/>
  <rect class="fil0" x="-7.55" y="2.02" width="16011.12" height="9506.6"/>
  <rect class="fil1" x="-7.57" y="8499.26" width="4315.52" height="221.72"/>
  <path class="fil2" d="M3394.12 8550.17l2.72 11.94 0 152.69 -25.56 0 0 -164.63 22.84 0zm80.43 35.81c1.68,6.44 2.5,13.62 2.5,21.59 0,7.94 -0.93,15.66 -2.82,23.13 -1.9,7.47 -4.76,14.08 -8.58,19.8 -3.86,5.72 -8.69,10.29 -14.48,13.73 -5.79,3.39 -12.58,5.11 -20.41,5.11 -4.9,0 -9.54,-0.54 -13.94,-1.68 -4.39,-1.11 -8.18,-2.58 -11.4,-4.4l0 -21.77c4.61,5.44 10.26,8.15 16.98,8.15 4.18,0 7.97,-1.03 11.4,-3.11 3.43,-2.11 6.36,-4.93 8.79,-8.5 2.43,-3.54 4.36,-7.8 5.76,-12.76 1.39,-4.97 2.11,-10.23 2.11,-15.84 0,-5.43 -0.65,-10.58 -1.9,-15.48 -1.25,-4.89 -3.04,-9.22 -5.32,-12.97 -2.33,-3.79 -5.12,-6.79 -8.4,-9.01 -3.29,-2.25 -7.08,-3.36 -11.41,-3.36 -3.64,0 -6.93,0.72 -9.93,2.18 -3,1.47 -5.72,3.54 -8.08,6.19l0 -22.2c3.22,-1.82 6.76,-3.22 10.69,-4.18 3.89,-0.97 7.93,-1.47 12.15,-1.47 4.61,0 9.26,0.65 14.01,1.9 4.75,1.25 9.19,3.32 13.3,6.25 4.14,2.97 7.86,6.79 11.22,11.55 3.36,4.75 5.93,10.47 7.76,17.15z"/>
  <path id="_1" class="fil2" d="M3528.98 8550.17l2.72 12.15 0 64.09 0 0.43 0 41.46 -25.35 0 0 -118.13 22.63 0zm11.3 5.25c3.5,-1.96 7.68,-3.46 12.58,-4.5 4.86,-1.04 11.51,-1.57 19.87,-1.57l0 26.37c-3.9,-1.1 -8.65,-1.75 -14.23,-1.89 -3.07,0 -6.18,0.25 -9.32,0.75 -3.15,0.5 -6.12,1.22 -8.9,2.18l0 -21.34z"/>
  <path id="_2" class="fil2" d="M3655.26 8549.56c7.69,0.39 14.66,2.25 20.95,5.54 6.25,3.29 11.54,7.61 15.8,12.98 4.25,5.39 7.58,11.61 9.93,18.76 2.4,7.11 3.58,14.73 3.58,22.81 0,8.11 -1.22,15.69 -3.68,22.73 -2.43,7.04 -5.83,13.19 -10.15,18.44 -4.33,5.22 -9.62,9.44 -15.91,12.65 -6.29,3.22 -13.12,5.12 -20.52,5.65l0 -20.09c6.97,-1.53 12.66,-5.93 17.05,-13.18 4.4,-7.26 6.62,-16.02 6.62,-26.2 0,-5.15 -0.54,-10.01 -1.58,-14.55 -1.03,-4.54 -2.61,-8.62 -4.71,-12.26 -2.11,-3.61 -4.62,-6.61 -7.55,-9.01 -2.93,-2.36 -6.22,-3.9 -9.83,-4.61l0 -19.66zm-58.44 59.69c0,-8.11 1.18,-15.65 3.54,-22.62 2.4,-6.97 5.79,-13.09 10.19,-18.34 4.4,-5.22 9.65,-9.47 15.8,-12.65 6.15,-3.22 12.9,-5.19 20.3,-5.86l0 19.44c-6.97,1.54 -12.55,5.97 -16.73,13.22 -4.22,7.26 -6.29,15.98 -6.29,26.17 0,5.18 0.54,10.04 1.57,14.65 1.04,4.61 2.54,8.72 4.51,12.37 1.96,3.61 4.36,6.61 7.22,9.01 2.86,2.36 6.11,3.82 9.72,4.39l0 20.09c-7.65,-0.53 -14.58,-2.46 -20.73,-5.75 -6.11,-3.29 -11.37,-7.58 -15.69,-12.87 -4.33,-5.33 -7.65,-11.51 -9.94,-18.66 -2.32,-7.11 -3.47,-14.65 -3.47,-22.59z"/>
  <path id="_3" class="fil2" d="M3738.4 8505.56l25.35 0 0 148.69c-0.15,1.97 -0.36,4.22 -0.65,6.72 -0.25,2.5 -0.46,4.97 -0.6,7.33l-24.1 0 0 -162.74zm103.27 80.42c1.68,6.44 2.5,13.48 2.5,21.16 0,7.97 -0.93,15.69 -2.82,23.24 -1.9,7.54 -4.76,14.22 -8.58,20.01 -3.86,5.79 -8.69,10.4 -14.48,13.84 -5.79,3.39 -12.58,5.11 -20.41,5.11 -4.9,0 -9.58,-0.54 -14.05,-1.68 -4.46,-1.11 -8.29,-2.65 -11.5,-4.61l0 -21.77c2.1,2.39 4.57,4.32 7.43,5.86 2.86,1.54 6.04,2.32 9.54,2.32 4.19,0 7.97,-1.07 11.41,-3.14 3.43,-2.11 6.36,-4.93 8.79,-8.51 2.46,-3.54 4.39,-7.76 5.86,-12.65 1.47,-4.9 2.22,-10.12 2.22,-15.73 0,-5.43 -0.68,-10.58 -2.01,-15.48 -1.32,-4.89 -3.14,-9.22 -5.43,-12.97 -2.32,-3.79 -5.15,-6.79 -8.51,-9.01 -3.32,-2.25 -7.11,-3.36 -11.29,-3.36 -3.65,0 -6.93,0.72 -9.94,2.18 -3,1.47 -5.68,3.61 -8.07,6.4l0 -22.41c3.21,-1.82 6.79,-3.22 10.68,-4.18 3.9,-0.97 7.97,-1.47 12.16,-1.47 4.61,0 9.29,0.65 14.01,1.9 4.75,1.25 9.18,3.32 13.29,6.25 4.15,2.97 7.9,6.79 11.33,11.55 3.43,4.75 6.04,10.47 7.87,17.15z"/>
  <path id="_4" class="fil2" d="M3897.78 8632.27c0,4.75 0.65,8.47 1.9,11.22 1.25,2.72 3,4.72 5.22,6.08 2.25,1.32 4.78,2.18 7.64,2.61 2.86,0.43 5.97,0.61 9.33,0.61l0 15.51c-1.82,0.29 -3.71,0.5 -5.64,0.64 -1.54,0.11 -3.36,0.22 -5.47,0.29 -2.08,0.07 -4.18,0.11 -6.26,0.11 -2.11,0 -4.22,-0.07 -6.29,-0.22 -2.11,-0.14 -4,-0.32 -5.65,-0.61 -4.75,-1 -8.47,-3.07 -11.11,-6.29 -2.65,-3.21 -4.68,-6.79 -6.08,-10.79 -1.39,-3.97 -2.25,-7.83 -2.61,-11.62 -0.36,-3.75 -0.53,-6.68 -0.53,-8.79l0 -2.5 0 -122.96 25.55 0 0 126.71z"/>
  <path id="_5" class="fil2" d="M4003.55 8549.13c7.54,0.72 14.33,2.72 20.41,6.08 6.08,3.36 11.29,7.68 15.62,12.97 4.32,5.33 7.65,11.41 9.94,18.23 2.32,6.83 3.46,13.98 3.46,21.38 0,3.32 -0.21,6.68 -0.64,10.04l-71.81 0 0 -18.44 48.36 0c0,-3.61 -0.6,-7.12 -1.78,-10.48 -1.18,-3.36 -2.94,-6.43 -5.22,-9.29 -2.33,-2.89 -5.01,-5.29 -8.08,-7.26 -3.07,-1.93 -6.47,-3.14 -10.26,-3.53l0 -19.7zm-0.82 99.48c1.54,0 3.43,-0.18 5.75,-0.5 2.29,-0.36 4.76,-1.01 7.33,-1.9 2.57,-0.93 5.15,-2.07 7.76,-3.47 2.57,-1.39 4.82,-3.07 6.79,-5l9.22 14.01c-4.61,5.72 -9.97,10.04 -16.12,12.98 -6.15,2.93 -13.98,4.39 -23.45,4.39 -7.68,0 -14.9,-1.57 -21.59,-4.68 -6.72,-3.15 -12.44,-7.43 -17.19,-12.9 -4.72,-5.44 -8.51,-11.8 -11.29,-19.05 -2.79,-7.26 -4.19,-15.09 -4.19,-23.45 0,-7.97 1.29,-15.52 3.86,-22.63 2.61,-7.11 6.12,-13.37 10.58,-18.73 4.47,-5.39 9.69,-9.76 15.62,-13.12 5.94,-3.32 12.3,-5.21 19.16,-5.64l0 20.12c-5.18,0.97 -9.43,3.07 -12.79,6.26 -3.33,3.21 -5.97,6.89 -7.83,11 -1.9,4.12 -3.22,8.33 -4,12.69 -0.76,4.33 -1.15,8.01 -1.15,11.08 0,5.44 0.68,10.51 2,15.2 1.33,4.68 3.4,8.72 6.19,12.15 2.78,3.39 6.22,6.15 10.36,8.15 4.11,2.03 9.12,3.04 14.98,3.04z"/>
  <path id="_6" class="fil2" d="M4110.6 8550.17l2.72 12.15 0 105.98 -25.56 0 0 -118.13 22.84 0zm98.83 -1.25c4.76,0 9.23,0.96 13.41,2.82 4.18,1.9 7.86,4.58 11.01,8.08 3.14,3.47 5.57,7.65 7.33,12.44 1.75,4.82 2.6,10.04 2.6,15.62l0 80.42 -25.12 0 0 -64.3c0,-4.76 -0.04,-9.26 -0.11,-13.51 -0.07,-4.26 -0.54,-8.05 -1.36,-11.41 -0.82,-3.36 -2.21,-5.96 -4.07,-7.86 -1.9,-1.89 -4.79,-2.82 -8.69,-2.82 -1,0 -3.07,0.21 -6.29,0.64 -3.22,0.39 -6.93,1.61 -11.12,3.54l0 -16.55c3.79,-2.22 7.62,-3.97 11.55,-5.22 3.89,-1.25 7.54,-1.89 10.86,-1.89zm-36.2 16.12c1.64,2.54 2.89,5.22 3.64,8.08 0.79,2.85 1.25,5.82 1.47,8.9 0.21,3.07 0.28,6.25 0.21,9.54 -0.07,3.25 -0.1,6.72 -0.1,10.36l0 66.38 -25.35 0 0 -64.3c0,-4.76 0,-9.26 0,-13.51 0,-4.26 -0.43,-8.05 -1.25,-11.41 -0.86,-3.36 -2.25,-5.96 -4.18,-7.86 -1.97,-1.89 -4.82,-2.82 -8.58,-2.82 -1.68,0 -4.18,0.32 -7.47,0.93 -3.25,0.64 -6.5,1.71 -9.72,3.25l0 -16.55c3.36,-1.93 6.93,-3.54 10.79,-4.79 3.83,-1.29 7.65,-1.89 11.41,-1.89 6.43,0 11.83,1.32 16.22,3.96 4.4,2.65 8.69,6.58 12.91,11.73z"/>
  <path id="_7" class="fil2" d="M4359.81 8550.17l2.72 12.15 0 64.09 0 0.43 0 41.46 -25.35 0 0 -118.13 22.63 0zm11.3 5.25c3.5,-1.96 7.68,-3.46 12.58,-4.5 4.86,-1.04 11.51,-1.57 19.87,-1.57l0 26.37c-3.9,-1.1 -8.65,-1.75 -14.23,-1.89 -3.07,0 -6.18,0.25 -9.32,0.75 -3.15,0.5 -6.12,1.22 -8.9,2.18l0 -21.34z"/>
  <path id="_8" class="fil2" d="M4485.45 8549.13c7.54,0.72 14.33,2.72 20.41,6.08 6.08,3.36 11.29,7.68 15.62,12.97 4.32,5.33 7.65,11.41 9.94,18.23 2.32,6.83 3.46,13.98 3.46,21.38 0,3.32 -0.21,6.68 -0.64,10.04l-71.81 0 0 -18.44 48.36 0c0,-3.61 -0.6,-7.12 -1.78,-10.48 -1.18,-3.36 -2.94,-6.43 -5.22,-9.29 -2.33,-2.89 -5.01,-5.29 -8.08,-7.26 -3.07,-1.93 -6.47,-3.14 -10.26,-3.53l0 -19.7zm-0.82 99.48c1.54,0 3.43,-0.18 5.75,-0.5 2.29,-0.36 4.76,-1.01 7.33,-1.9 2.57,-0.93 5.15,-2.07 7.76,-3.47 2.57,-1.39 4.82,-3.07 6.79,-5l9.22 14.01c-4.61,5.72 -9.97,10.04 -16.12,12.98 -6.15,2.93 -13.98,4.39 -23.45,4.39 -7.68,0 -14.9,-1.57 -21.59,-4.68 -6.72,-3.15 -12.44,-7.43 -17.19,-12.9 -4.72,-5.44 -8.51,-11.8 -11.29,-19.05 -2.79,-7.26 -4.19,-15.09 -4.19,-23.45 0,-7.97 1.29,-15.52 3.86,-22.63 2.61,-7.11 6.12,-13.37 10.58,-18.73 4.47,-5.39 9.69,-9.76 15.62,-13.12 5.94,-3.32 12.3,-5.21 19.16,-5.64l0 20.12c-5.18,0.97 -9.43,3.07 -12.79,6.26 -3.33,3.21 -5.97,6.89 -7.83,11 -1.9,4.12 -3.22,8.33 -4,12.69 -0.76,4.33 -1.15,8.01 -1.15,11.08 0,5.44 0.68,10.51 2,15.2 1.33,4.68 3.4,8.72 6.19,12.15 2.78,3.39 6.22,6.15 10.36,8.15 4.11,2.03 9.12,3.04 14.98,3.04z"/>
  <path id="_9" class="fil2" d="M4566.95 8583.91c0,-5.33 0.96,-10.12 2.93,-14.37 1.96,-4.25 4.68,-7.86 8.15,-10.86 3.5,-3.01 7.43,-5.4 11.83,-7.15 4.4,-1.72 8.97,-2.83 13.73,-3.22l0 20.91c-3.62,0.71 -6.47,2.18 -8.48,4.43 -2.03,2.22 -3.03,5.36 -3.03,9.4 0,3.36 1.07,6.04 3.25,8.08 2.14,2 4.9,3.79 8.26,5.33l0 22.41c-2.36,-0.68 -4.79,-1.5 -7.23,-2.4 -2.43,-0.93 -4.86,-1.93 -7.22,-3.04 -7.39,-3.93 -12.93,-8.04 -16.65,-12.36 -3.68,-4.33 -5.54,-10.05 -5.54,-17.16zm69.95 -8.79c-3.79,-1.97 -7.79,-3.43 -12.05,-4.44 -4.25,-0.96 -8.47,-1.57 -12.69,-1.85l0 -20.73c6.29,0.28 12.08,1.14 17.41,2.6 5.29,1.47 10.47,3.79 15.48,7.01l-8.15 17.41zm-58.87 66.8c2.79,1.93 6.11,3.75 9.97,5.43 3.83,1.68 8.69,2.51 14.55,2.51l1.04 0 0 19.48c-3.47,0 -6.69,-0.11 -9.62,-0.33 -2.93,-0.17 -5.83,-0.67 -8.72,-1.46 -2.86,-0.75 -5.76,-1.82 -8.69,-3.22 -2.93,-1.39 -6,-3.21 -9.18,-5.47l10.65 -16.94zm34.13 -42.1c4.22,1.39 8.47,2.93 12.8,4.61 4.32,1.68 8.26,3.75 11.83,6.29 3.54,2.5 6.47,5.61 8.79,9.29 2.29,3.72 3.47,8.36 3.47,13.94 0,5.43 -1,10.19 -2.93,14.23 -1.97,4.07 -4.58,7.54 -7.86,10.47 -3.29,2.93 -7.15,5.25 -11.62,6.93 -4.47,1.68 -9.29,2.79 -14.48,3.36l0 -19.91c4.76,-0.85 8.44,-2.35 11.01,-4.5 2.58,-2.18 3.86,-5.07 3.86,-8.68 0,-3.65 -1.43,-6.47 -4.29,-8.51 -2.86,-2 -6.36,-3.79 -10.58,-5.33l0 -22.19z"/>
  <path id="_10" class="fil2" d="M4737.44 8549.56c7.69,0.39 14.66,2.25 20.95,5.54 6.25,3.29 11.54,7.61 15.8,12.98 4.25,5.39 7.58,11.61 9.93,18.76 2.4,7.11 3.58,14.73 3.58,22.81 0,8.11 -1.22,15.69 -3.68,22.73 -2.43,7.04 -5.83,13.19 -10.15,18.44 -4.33,5.22 -9.62,9.44 -15.91,12.65 -6.29,3.22 -13.12,5.12 -20.52,5.65l0 -20.09c6.97,-1.53 12.66,-5.93 17.05,-13.18 4.4,-7.26 6.62,-16.02 6.62,-26.2 0,-5.15 -0.54,-10.01 -1.58,-14.55 -1.03,-4.54 -2.61,-8.62 -4.71,-12.26 -2.11,-3.61 -4.62,-6.61 -7.55,-9.01 -2.93,-2.36 -6.22,-3.9 -9.83,-4.61l0 -19.66zm-58.44 59.69c0,-8.11 1.18,-15.65 3.54,-22.62 2.4,-6.97 5.79,-13.09 10.19,-18.34 4.4,-5.22 9.65,-9.47 15.8,-12.65 6.15,-3.22 12.9,-5.19 20.3,-5.86l0 19.44c-6.97,1.54 -12.55,5.97 -16.73,13.22 -4.22,7.26 -6.29,15.98 -6.29,26.17 0,5.18 0.54,10.04 1.57,14.65 1.04,4.61 2.54,8.72 4.51,12.37 1.96,3.61 4.36,6.61 7.22,9.01 2.86,2.36 6.11,3.82 9.72,4.39l0 20.09c-7.65,-0.53 -14.58,-2.46 -20.73,-5.75 -6.11,-3.29 -11.37,-7.58 -15.69,-12.87 -4.33,-5.33 -7.65,-11.51 -9.94,-18.66 -2.32,-7.11 -3.47,-14.65 -3.47,-22.59z"/>
  <path id="_11" class="fil2" d="M4845.71 8632.27c0,4.75 0.65,8.47 1.9,11.22 1.25,2.72 3,4.72 5.22,6.08 2.25,1.32 4.78,2.18 7.64,2.61 2.86,0.43 5.97,0.61 9.33,0.61l0 15.51c-1.82,0.29 -3.71,0.5 -5.64,0.64 -1.54,0.11 -3.36,0.22 -5.47,0.29 -2.08,0.07 -4.18,0.11 -6.26,0.11 -2.11,0 -4.22,-0.07 -6.29,-0.22 -2.11,-0.14 -4,-0.32 -5.65,-0.61 -4.75,-1 -8.47,-3.07 -11.11,-6.29 -2.65,-3.21 -4.68,-6.79 -6.08,-10.79 -1.39,-3.97 -2.25,-7.83 -2.61,-11.62 -0.36,-3.75 -0.53,-6.68 -0.53,-8.79l0 -2.5 0 -122.96 25.55 0 0 126.71z"/>
  <path id="_12" class="fil2" d="M4921.31 8614.47c0,4.9 0.22,9.47 0.65,13.73 0.43,4.25 1.32,8 2.71,11.18 1.4,3.22 3.51,5.79 6.29,7.76 2.79,1.97 6.51,2.93 11.08,2.93 1.83,0 4.4,-0.29 7.76,-0.82 3.36,-0.57 6.58,-1.47 9.65,-2.72l0 15.48c-3.64,1.97 -7.58,3.68 -11.83,5.15 -4.25,1.46 -8.51,2.18 -12.69,2.18 -3.36,0 -6.36,-0.33 -9.01,-0.93 -2.64,-0.65 -5.11,-1.61 -7.43,-2.93 -2.29,-1.33 -4.5,-2.83 -6.58,-4.51 -2.11,-1.68 -4.21,-3.57 -6.29,-5.64 -2.39,-2.4 -4.25,-5.15 -5.65,-8.3 -1.39,-3.14 -2.43,-6.4 -3.03,-9.83 -0.65,-3.43 -1,-6.9 -1.08,-10.36 -0.07,-3.51 -0.1,-6.94 -0.1,-10.26l0 -66.41 25.55 0 0 64.3zm72.28 -64.3l0 118.13 -22.84 0 -2.72 -12.15 0 -105.98 25.56 0z"/>
  <path id="_13" class="fil2" d="M5062.89 8632.49c0,4.75 0.64,8.43 1.89,11.11 1.26,2.65 3.04,4.65 5.33,6.04 2.32,1.43 4.9,2.29 7.76,2.65 2.86,0.35 5.89,0.5 9.11,0.5l0 15.51c-1.82,0.29 -3.61,0.5 -5.43,0.64 -1.54,0.11 -3.4,0.22 -5.54,0.29 -2.18,0.07 -4.33,0.11 -6.4,0.11 -2.11,0 -4.22,-0.07 -6.4,-0.22 -2.14,-0.14 -4,-0.32 -5.54,-0.61 -4.75,-0.85 -8.47,-2.89 -11.11,-6.18 -2.65,-3.29 -4.65,-6.9 -5.97,-10.9 -1.33,-3.97 -2.15,-7.83 -2.51,-11.62 -0.35,-3.75 -0.53,-6.68 -0.53,-8.79l0 -63.66 -15.48 0 0 -17.19 15.48 0 0 -33.49 25.34 0 0 33.49 18.87 0 0 17.19 -18.87 0 0 65.13z"/>
  <path id="_14" class="fil2" d="M5142.07 8668.3l-25.56 0 0 -118.13 25.56 0 0 118.13zm2.28 -155.81c0,4.19 -1.46,7.69 -4.39,10.55 -2.93,2.89 -6.47,4.32 -10.69,4.32 -4.18,0 -7.68,-1.46 -10.54,-4.39 -2.86,-2.93 -4.29,-6.44 -4.29,-10.48 0,-4.21 1.46,-7.75 4.39,-10.68 2.93,-2.93 6.4,-4.4 10.44,-4.4 4.22,0 7.76,1.47 10.69,4.4 2.93,2.93 4.39,6.47 4.39,10.68z"/>
  <path id="_15" class="fil2" d="M5233.17 8549.56c7.69,0.39 14.66,2.25 20.95,5.54 6.25,3.29 11.54,7.61 15.8,12.98 4.25,5.39 7.58,11.61 9.93,18.76 2.4,7.11 3.58,14.73 3.58,22.81 0,8.11 -1.22,15.69 -3.68,22.73 -2.43,7.04 -5.83,13.19 -10.15,18.44 -4.33,5.22 -9.62,9.44 -15.91,12.65 -6.29,3.22 -13.12,5.12 -20.52,5.65l0 -20.09c6.97,-1.53 12.66,-5.93 17.05,-13.18 4.4,-7.26 6.62,-16.02 6.62,-26.2 0,-5.15 -0.54,-10.01 -1.58,-14.55 -1.03,-4.54 -2.61,-8.62 -4.71,-12.26 -2.11,-3.61 -4.62,-6.61 -7.55,-9.01 -2.93,-2.36 -6.22,-3.9 -9.83,-4.61l0 -19.66zm-58.44 59.69c0,-8.11 1.18,-15.65 3.54,-22.62 2.4,-6.97 5.79,-13.09 10.19,-18.34 4.4,-5.22 9.65,-9.47 15.8,-12.65 6.15,-3.22 12.9,-5.19 20.3,-5.86l0 19.44c-6.97,1.54 -12.55,5.97 -16.73,13.22 -4.22,7.26 -6.29,15.98 -6.29,26.17 0,5.18 0.54,10.04 1.57,14.65 1.04,4.61 2.54,8.72 4.51,12.37 1.96,3.61 4.36,6.61 7.22,9.01 2.86,2.36 6.11,3.82 9.72,4.39l0 20.09c-7.65,-0.53 -14.58,-2.46 -20.73,-5.75 -6.11,-3.29 -11.37,-7.58 -15.69,-12.87 -4.33,-5.33 -7.65,-11.51 -9.94,-18.66 -2.32,-7.11 -3.47,-14.65 -3.47,-22.59z"/>
  <path id="_16" class="fil2" d="M5338.94 8550.17l2.72 11.94 0 106.19 -25.35 0 0 -118.13 22.63 0zm65.34 13.01c2.36,2.36 4.22,5.11 5.54,8.26 1.32,3.14 2.32,6.43 2.93,9.82 0.64,3.44 1.04,6.9 1.14,10.37 0.15,3.5 0.22,6.93 0.22,10.29l0 62.2 0 4.18 -25.56 0 0 -64.3c0,-4.76 -0.18,-9.3 -0.61,-13.62 -0.42,-4.33 -1.39,-8.15 -2.93,-11.51 -1.53,-3.36 -3.64,-5.97 -6.29,-7.86 -2.64,-1.86 -6.36,-2.83 -11.08,-2.83 -1.96,0 -4.57,0.32 -7.86,0.97 -3.29,0.61 -6.47,1.61 -9.54,3l0 -16.12c3.78,-1.93 7.86,-3.61 12.26,-5 4.39,-1.4 8.68,-2.11 12.86,-2.11 6.29,0 11.62,1.28 15.94,3.89 4.33,2.58 8.65,6.01 12.98,10.37z"/>
  <path class="fil3" d="M11165.98 8517.56l980.95 0 0 145.21 -84.67 8.84 -896.28 0 0 -154.05zm614.9 638.81c-65.72,0 -120.87,-9.05 -165.47,-27.14 -44.6,-18.1 -80.79,-41.37 -108.59,-70.03 -27.79,-28.65 -47.61,-60.32 -59.89,-95.44 -12.28,-34.9 -18.32,-69.16 -18.32,-102.77 0,-26.07 3.02,-50.85 8.84,-74.55 5.81,-23.48 14.22,-44.6 25.21,-63.13l133.79 0c-15.08,14.44 -27.36,30.38 -36.63,48.05 -9.26,17.67 -13.78,37.49 -13.78,59.25 0,26.07 6.46,49.34 19.6,69.59 12.93,20.04 30.81,37.06 53.65,51.06 22.62,13.79 48.69,24.56 78.21,32.1 29.51,7.55 60.97,11.42 94.58,11.42 33.83,0 65.07,-4.31 94.15,-12.71 29.09,-8.4 54.51,-19.6 76.49,-34.04 21.76,-14.22 39,-31.67 51.71,-52.35 12.49,-20.69 18.96,-43.09 18.96,-67.44 0,-41.37 -16.59,-76.27 -49.34,-104.93l131.21 0c10.99,20.26 20.04,43.53 27.15,70.03 7.32,26.5 10.77,54.51 10.77,84.02 0,33.61 -6.03,66.79 -18.32,99.11 -12.06,32.32 -32.1,61.19 -59.89,86.4 -36.2,32.1 -81.01,55.58 -134.44,70.88 -53.43,15.08 -106.65,22.62 -159.65,22.62z"/>
  <path id="_1_0" class="fil3" d="M11932.34 8178c37.92,0 66.14,-7.75 84.46,-23.48 18.53,-15.51 29.51,-37.92 32.96,-67.44l102.13 0c0.86,3.45 1.29,8.84 1.29,16.38 0,28.65 -3.66,56.23 -11.21,82.73 -7.75,26.5 -19.82,49.77 -36.62,70.02 -17.02,20.25 -39.21,35.98 -67.01,47.4 -27.79,11.42 -61.83,17.02 -102.34,17.02 -38.56,0 -72.17,-8.19 -100.18,-24.56 -28.23,-16.37 -51.5,-37.49 -69.59,-63.13 -18.1,-25.64 -31.46,-54.94 -40.29,-87.9 -8.84,-32.75 -13.36,-65.93 -13.36,-99.54l0 -55.59 89.63 0 0 27.8c0,16.8 1.72,34.47 5.17,53 3.23,18.53 9.69,35.76 18.96,51.71 9.26,15.94 22.4,29.3 39.64,39.86 17.24,10.34 39.43,15.72 66.36,15.72zm3.66 -392.55c6.9,0 16.81,-0.43 29.74,-1.29 13.14,-0.86 26.28,-2.59 39.85,-5.17 13.36,-2.37 25.64,-6.47 36.63,-11.85 10.77,-5.6 18.1,-12.93 21.33,-22.19l84.67 40.5c0,10.77 -2.58,22.41 -7.54,34.69 -5.17,12.06 -12.28,23.91 -21.54,35.33 -9.27,11.42 -19.61,20.9 -30.81,29.09 -11.42,7.97 -23.92,14 -37.28,18.31 20.9,8.4 39.65,24.99 56.02,49.77 16.59,24.78 28.44,52.36 35.98,82.73l-95.87 0c-4.1,-20.25 -12.5,-38.56 -24.57,-54.94 -12.28,-16.37 -26.71,-30.59 -43.52,-42.22l-266.51 0c-41.15,0 -73.9,1.93 -98.46,6.24 -24.35,4.1 -42.23,11.42 -53.65,21.33 -11.2,10.13 -18.53,22.63 -21.33,37.28 -3.02,14.86 -4.52,32.31 -4.52,52.35 0,18.53 2.37,35.98 6.89,52.57 4.74,16.38 10.13,31.46 16.59,45.46 6.25,13.79 13.14,26.07 20.68,36.63 7.54,10.34 13.58,18.1 17.67,23.27l-87.04 56.88c-9.27,-8.62 -18.75,-21.12 -28.44,-37.92 -9.7,-16.81 -18.31,-36.2 -25.86,-58.18 -7.54,-21.76 -13.57,-45.67 -18.31,-71.31 -4.52,-25.64 -6.89,-52.35 -6.89,-80.15 0,-25.21 2.58,-49.77 7.54,-73.9 4.95,-23.91 13.57,-45.89 25.21,-65.49 11.85,-19.83 27.57,-37.06 47.39,-51.93 19.83,-14.65 44.39,-24.99 73.9,-30.81 29.31,-5.82 59.04,-9.91 88.99,-12.06 29.73,-2.16 59.46,-3.02 88.98,-3.02l164.17 0 9.91 0zm-770.02 127.12l179.25 137.67 0 100.83 -179.25 -84.46 0 -154.04z"/>
  <path id="_2_1" class="fil3" d="M11929.75 6635.15c28.66,0 51.07,-3.88 67.66,-11.42 16.37,-7.54 28.44,-18.1 36.62,-31.46 7.98,-13.57 13.15,-28.87 15.73,-46.1 2.59,-17.24 3.66,-35.98 3.66,-56.23l93.51 0c1.72,10.98 3.02,22.4 3.88,34.04 0.64,9.26 1.29,20.25 1.72,32.96 0.43,12.5 0.65,25.21 0.65,37.7 0,12.72 -0.43,25.43 -1.29,37.92 -0.87,12.72 -1.94,24.14 -3.67,34.05 -5.81,28.65 -18.53,51.06 -37.92,67 -19.39,15.94 -40.93,28.23 -65.06,36.63 -23.92,8.4 -47.19,13.57 -70.02,15.73 -22.63,2.15 -40.29,3.23 -53.01,3.23l-15.08 0 -741.15 0 0 -154.05 763.77 0z"/>
  <path id="_3_2" class="fil3" d="M11165.98 6328.34l0 -152.75 980.95 0 0 152.75 -980.95 0zm347.31 -530.22c14.22,-14.22 30.81,-25.43 49.77,-33.4 18.96,-7.97 38.78,-14 59.25,-17.67 20.68,-3.87 41.58,-6.24 62.48,-6.89 21.11,-0.86 41.79,-1.29 62.05,-1.29l374.88 0 25.21 0 0 154.04 -387.6 0c-28.65,0 -56.01,1.08 -82.08,3.67 -26.07,2.58 -49.13,8.4 -69.38,17.66 -20.25,9.27 -35.98,21.98 -47.4,37.92 -11.2,15.95 -17.02,38.35 -17.02,66.79 0,11.85 1.94,27.58 5.82,47.4 3.66,19.82 9.69,39 18.1,57.53l-97.17 0c-11.64,-22.84 -21.76,-47.4 -30.17,-73.9 -8.4,-26.5 -12.71,-52.36 -12.71,-77.56 0,-37.92 7.76,-70.03 23.49,-96.1 15.51,-26.06 36.19,-52.13 62.48,-78.2z"/>
  <path id="_4_3" class="fil3" d="M11428.61 5228.89c4.31,-45.46 16.38,-86.39 36.63,-123.02 20.25,-36.63 46.32,-68.08 78.21,-94.15 32.1,-26.07 68.73,-46.11 109.88,-59.9 41.15,-14 84.24,-20.9 128.84,-20.9 20.04,0 40.29,1.3 60.54,3.88l0 432.84 -111.17 0 0 -291.5c-21.76,0 -42.88,3.66 -63.13,10.77 -20.04,7.11 -38.78,17.67 -56.02,31.46 -17.45,14 -31.88,30.16 -43.73,48.69 -11.64,18.53 -18.75,39 -21.33,61.83l-118.72 0zm599.61 4.96c0,-9.26 -1.08,-20.68 -3.02,-34.69 -2.15,-13.79 -6.03,-28.65 -11.42,-44.17 -5.6,-15.51 -12.5,-31.02 -20.9,-46.75 -8.4,-15.51 -18.53,-29.08 -30.16,-40.93l84.46 -55.59c34.47,27.79 60.54,60.11 78.2,97.17 17.67,37.06 26.51,84.24 26.51,141.33 0,46.33 -9.48,89.85 -28.23,130.14 -18.96,40.5 -44.81,74.97 -77.78,103.63 -32.75,28.44 -71.1,51.28 -114.83,68.08 -43.74,16.81 -90.92,25.21 -141.34,25.21 -48.04,0 -93.5,-7.76 -136.38,-23.27 -42.87,-15.73 -80.58,-36.84 -112.9,-63.77 -32.53,-26.93 -58.81,-58.39 -79.07,-94.16 -20.03,-35.76 -31.45,-74.11 -34.04,-115.48l121.3 0c5.82,31.24 18.53,56.88 37.7,77.13 19.4,20.04 41.59,35.98 66.36,47.19 24.78,11.42 50.2,19.39 76.49,24.13 26.07,4.52 48.26,6.89 66.79,6.89 32.75,0 63.34,-4.09 91.57,-12.06 28.22,-7.97 52.57,-20.47 73.25,-37.28 20.47,-16.8 37.06,-37.48 49.12,-62.48 12.28,-24.77 18.32,-54.94 18.32,-90.27z"/>
  <path id="_5_4" class="fil3" d="M11931.05 4172.32c28.65,0 50.84,-3.88 67,-11.42 15.95,-7.54 28.01,-18.31 36.41,-32.1 8.62,-14 13.79,-29.52 15.95,-46.75 2.15,-17.24 3.01,-35.55 3.01,-54.94l93.51 0c1.72,10.99 3.02,21.76 3.88,32.75 0.64,9.26 1.29,20.46 1.72,33.39 0.43,13.14 0.65,26.07 0.65,38.57 0,12.71 -0.43,25.42 -1.29,38.56 -0.87,12.93 -1.94,24.13 -3.67,33.4 -5.17,28.65 -17.45,51.06 -37.27,67 -19.82,15.95 -41.58,28.01 -65.71,35.98 -23.92,7.97 -47.19,12.93 -70.02,15.08 -22.63,2.16 -40.29,3.24 -53.01,3.24l-383.72 0 0 93.29 -103.63 0 0 -93.29 -201.88 0 0 -152.76 201.88 0 0 -113.76 103.63 0 0 113.76 392.56 0z"/>
  <path id="_6_5" class="fil3" d="M12146.93 3695.1l0 154.05 -712.07 0 0 -154.05 712.07 0zm-939.15 -13.79c25.2,0 46.32,8.83 63.77,26.5 17.24,17.67 25.85,39 25.85,64.42 0,25.21 -8.83,46.32 -26.5,63.56 -17.66,17.23 -38.78,25.85 -63.12,25.85 -25.43,0 -46.76,-8.83 -64.42,-26.5 -17.67,-17.67 -26.5,-38.57 -26.5,-62.91 0,-25.42 8.83,-46.75 26.5,-64.42 17.66,-17.67 38.99,-26.5 64.42,-26.5z"/>
  <path id="_7_6" class="fil3" d="M11619.29 3007.16c-15.3,12.49 -29.3,29.94 -42.45,52.35 -12.92,22.19 -20.68,51.92 -23.26,88.98l-121.09 0c2.37,-46.32 12.28,-85.96 29.52,-119.36 17.24,-33.18 42.44,-63.34 75.19,-90.27l82.09 68.3zm407.63 141.33c-3.23,-30.38 -10.55,-56.23 -21.97,-77.56 -11.42,-21.55 -24.56,-42.01 -39.86,-61.4l82.09 -56.67c32.74,26.07 57.95,54.3 75.19,84.46 17.23,30.38 27.15,67.43 29.52,111.17l-124.97 0zm-235.92 352.26c-48.04,0 -93.07,-6.89 -135.08,-20.89 -42.23,-13.79 -79.29,-34.26 -111.18,-61.19 -31.88,-26.93 -57.95,-58.82 -77.56,-95.23 -19.82,-36.63 -31.46,-77.78 -34.69,-123.24l122.38 0c9.26,42.23 35.12,75.84 77.56,101.05 42.66,25.2 94.15,37.92 154.7,37.92 31.24,0 60.32,-3.24 87.68,-9.48 27.37,-6.25 51.71,-15.3 72.61,-27.15 21.12,-11.85 38.78,-26.29 53,-43.52 14.44,-17.24 23.27,-36.84 26.5,-58.82l124.97 0c-2.37,46.32 -13.58,87.9 -33.4,124.96 -19.82,37.06 -45.89,68.73 -78.21,94.8 -32.53,26.07 -70.02,46.11 -113.11,59.9 -42.88,14 -88.34,20.89 -136.17,20.89z"/>
  <path id="_8_7" class="fil3" d="M11789.71 2444.18l357.22 -282.88 0 174.3 -272.76 207.05 -175.38 0 -263.93 -176.67 0 -171.72 354.85 249.92zm357.22 304.22l-980.95 0 0 -154.05 980.95 0 0 154.05z"/>
  <path id="_9_8" class="fil3" d="M11428.61 1675.45c4.31,-45.46 16.38,-86.39 36.63,-123.02 20.25,-36.63 46.32,-68.08 78.21,-94.15 32.1,-26.07 68.73,-46.11 109.88,-59.9 41.15,-14 84.24,-20.9 128.84,-20.9 20.04,0 40.29,1.3 60.54,3.88l0 432.84 -111.17 0 0 -291.5c-21.76,0 -42.88,3.66 -63.13,10.77 -20.04,7.11 -38.78,17.67 -56.02,31.46 -17.45,14 -31.88,30.16 -43.73,48.69 -11.64,18.53 -18.75,39 -21.33,61.83l-118.72 0zm599.61 4.96c0,-9.26 -1.08,-20.68 -3.02,-34.69 -2.15,-13.79 -6.03,-28.65 -11.42,-44.17 -5.6,-15.51 -12.5,-31.02 -20.9,-46.75 -8.4,-15.51 -18.53,-29.08 -30.16,-40.93l84.46 -55.59c34.47,27.79 60.54,60.11 78.2,97.17 17.67,37.06 26.51,84.24 26.51,141.33 0,46.33 -9.48,89.85 -28.23,130.14 -18.96,40.5 -44.81,74.97 -77.78,103.63 -32.75,28.44 -71.1,51.28 -114.83,68.08 -43.74,16.81 -90.92,25.21 -141.34,25.21 -48.04,0 -93.5,-7.76 -136.38,-23.27 -42.87,-15.73 -80.58,-36.84 -112.9,-63.77 -32.53,-26.93 -58.81,-58.39 -79.07,-94.16 -20.03,-35.76 -31.45,-74.11 -34.04,-115.48l121.3 0c5.82,31.24 18.53,56.88 37.7,77.13 19.4,20.04 41.59,35.98 66.36,47.19 24.78,11.42 50.2,19.39 76.49,24.13 26.07,4.52 48.26,6.89 66.79,6.89 32.75,0 63.34,-4.09 91.57,-12.06 28.22,-7.97 52.57,-20.47 73.25,-37.28 20.47,-16.8 37.06,-37.48 49.12,-62.48 12.28,-24.77 18.32,-54.94 18.32,-90.27z"/>
  <path id="_10_9" class="fil3" d="M11931.05 964.68c28.65,0 50.84,-3.88 67,-11.42 15.95,-7.54 28.01,-18.31 36.41,-32.1 8.62,-14 13.79,-29.52 15.95,-46.75 2.15,-17.24 3.01,-35.55 3.01,-54.94l93.51 0c1.72,10.99 3.02,21.76 3.88,32.75 0.64,9.26 1.29,20.46 1.72,33.39 0.43,13.14 0.65,26.07 0.65,38.57 0,12.71 -0.43,25.42 -1.29,38.56 -0.87,12.93 -1.94,24.13 -3.67,33.4 -5.17,28.65 -17.45,51.06 -37.27,67 -19.82,15.95 -41.58,28.01 -65.71,35.98 -23.92,7.97 -47.19,12.93 -70.02,15.08 -22.63,2.16 -40.29,3.24 -53.01,3.24l-383.72 0 0 93.29 -103.63 0 0 -93.29 -201.88 0 0 -152.76 201.88 0 0 -113.76 103.63 0 0 113.76 392.56 0z"/>
  <polygon id="_11_10" class="fil3" points="11840.77,7415.95 11556.81,7415.95 11556.81,7131.98 11840.77,7131.98 "/>
  <g id="_2962065621344">
   <g>
    <rect class="fil4" transform="matrix(-0.16257 0.16257 -0.112551 -0.112551 12699.4 1543.59)" width="1328.97" height="295.32"/>
    <rect class="fil4" transform="matrix(-0.103254 0.103254 -0.172948 -0.172948 12699.4 1543.59)" width="321.91" height="1249.23"/>
   </g>
   <g>
    <rect class="fil4" transform="matrix(-0.16257 0.16257 -0.112551 -0.112551 12697.6 1176.32)" width="1328.97" height="295.32"/>
    <rect class="fil4" transform="matrix(-0.103254 0.103254 -0.172948 -0.172948 12697.6 1176.32)" width="321.91" height="1249.23"/>
   </g>
   <g>
    <rect class="fil4" transform="matrix(-0.16257 0.16257 -0.112551 -0.112551 12999.3 1543.59)" width="1328.97" height="295.32"/>
    <rect class="fil4" transform="matrix(-0.103254 0.103254 -0.172948 -0.172948 12999.3 1543.59)" width="321.91" height="1249.23"/>
   </g>
   <g>
    <rect class="fil4" transform="matrix(-0.16257 0.16257 -0.112551 -0.112551 12997.6 1176.32)" width="1328.97" height="295.32"/>
    <rect class="fil4" transform="matrix(-0.103254 0.103254 -0.172948 -0.172948 12997.6 1176.32)" width="321.91" height="1249.23"/>
   </g>
  </g>
  <g id="_2962483751008">
   <g>
    <rect class="fil4" transform="matrix(-0.16257 0.16257 -0.112551 -0.112551 12699.4 1543.59)" width="1328.97" height="295.32"/>
    <rect class="fil4" transform="matrix(-0.103254 0.103254 -0.172948 -0.172948 12699.4 1543.59)" width="321.91" height="1249.23"/>
   </g>
   <g>
    <rect class="fil4" transform="matrix(-0.16257 0.16257 -0.112551 -0.112551 12697.6 1176.32)" width="1328.97" height="295.32"/>
    <rect class="fil4" transform="matrix(-0.103254 0.103254 -0.172948 -0.172948 12697.6 1176.32)" width="321.91" height="1249.23"/>
   </g>
   <g>
    <rect class="fil4" transform="matrix(-0.16257 0.16257 -0.112551 -0.112551 12999.3 1543.59)" width="1328.97" height="295.32"/>
    <rect class="fil4" transform="matrix(-0.103254 0.103254 -0.172948 -0.172948 12999.3 1543.59)" width="321.91" height="1249.23"/>
   </g>
   <g>
    <rect class="fil4" transform="matrix(-0.16257 0.16257 -0.112551 -0.112551 12997.6 1176.32)" width="1328.97" height="295.32"/>
    <rect class="fil4" transform="matrix(-0.103254 0.103254 -0.172948 -0.172948 12997.6 1176.32)" width="321.91" height="1249.23"/>
   </g>
  </g>
  <g id="_2962507428688">
   <g>
    <g>
     <g>
      <g>
       <g>
        <rect class="fil5" transform="matrix(0.0551679 0.0551679 -0.0381941 0.0381941 10755.4 8602.93)" width="1328.97" height="295.32"/>
        <rect class="fil5" transform="matrix(0.0350392 0.0350392 -0.0586894 0.0586894 10755.4 8602.93)" width="321.91" height="1249.23"/>
       </g>
       <g>
        <rect class="fil5" transform="matrix(0.0551679 0.0551679 -0.0381941 0.0381941 10630.8 8603.53)" width="1328.97" height="295.32"/>
        <rect class="fil5" transform="matrix(0.0350392 0.0350392 -0.0586894 0.0586894 10630.8 8603.53)" width="321.91" height="1249.23"/>
       </g>
       <g>
        <rect class="fil5" transform="matrix(0.0551679 0.0551679 -0.0381941 0.0381941 10755.4 8501.14)" width="1328.97" height="295.32"/>
        <rect class="fil5" transform="matrix(0.0350392 0.0350392 -0.0586894 0.0586894 10755.4 8501.14)" width="321.91" height="1249.23"/>
       </g>
       <g>
        <rect class="fil5" transform="matrix(0.0551679 0.0551679 -0.0381941 0.0381941 10630.8 8501.74)" width="1328.97" height="295.32"/>
        <rect class="fil5" transform="matrix(0.0350392 0.0350392 -0.0586894 0.0586894 10630.8 8501.74)" width="321.91" height="1249.23"/>
       </g>
      </g>
      <g>
       <g>
        <rect class="fil5" transform="matrix(0.0551679 0.0551679 -0.0381941 0.0381941 11005.8 8602.93)" width="1328.97" height="295.32"/>
        <rect class="fil5" transform="matrix(0.0350392 0.0350392 -0.0586894 0.0586894 11005.8 8602.93)" width="321.91" height="1249.23"/>
       </g>
       <g>
        <rect class="fil5" transform="matrix(0.0551679 0.0551679 -0.0381941 0.0381941 10881.1 8603.53)" width="1328.97" height="295.32"/>
        <rect class="fil5" transform="matrix(0.0350392 0.0350392 -0.0586894 0.0586894 10881.1 8603.53)" width="321.91" height="1249.23"/>
       </g>
       <g>
        <rect class="fil5" transform="matrix(0.0551679 0.0551679 -0.0381941 0.0381941 11005.8 8501.14)" width="1328.97" height="295.32"/>
        <rect class="fil5" transform="matrix(0.0350392 0.0350392 -0.0586894 0.0586894 11005.8 8501.14)" width="321.91" height="1249.23"/>
       </g>
       <g>
        <rect class="fil5" transform="matrix(0.0551679 0.0551679 -0.0381941 0.0381941 10881.1 8501.74)" width="1328.97" height="295.32"/>
        <rect class="fil5" transform="matrix(0.0350392 0.0350392 -0.0586894 0.0586894 10881.1 8501.74)" width="321.91" height="1249.23"/>
       </g>
      </g>
     </g>
     <g>
      <g>
       <g>
        <rect class="fil5" transform="matrix(0.0551679 0.0551679 -0.0381941 0.0381941 10755.4 8602.93)" width="1328.97" height="295.32"/>
        <rect class="fil5" transform="matrix(0.0350392 0.0350392 -0.0586894 0.0586894 10755.4 8602.93)" width="321.91" height="1249.23"/>
       </g>
       <g>
        <rect class="fil5" transform="matrix(0.0551679 0.0551679 -0.0381941 0.0381941 10630.8 8603.53)" width="1328.97" height="295.32"/>
        <rect class="fil5" transform="matrix(0.0350392 0.0350392 -0.0586894 0.0586894 10630.8 8603.53)" width="321.91" height="1249.23"/>
       </g>
       <g>
        <rect class="fil5" transform="matrix(0.0551679 0.0551679 -0.0381941 0.0381941 10755.4 8501.14)" width="1328.97" height="295.32"/>
        <rect class="fil5" transform="matrix(0.0350392 0.0350392 -0.0586894 0.0586894 10755.4 8501.14)" width="321.91" height="1249.23"/>
       </g>
       <g>
        <rect class="fil5" transform="matrix(0.0551679 0.0551679 -0.0381941 0.0381941 10630.8 8501.74)" width="1328.97" height="295.32"/>
        <rect class="fil5" transform="matrix(0.0350392 0.0350392 -0.0586894 0.0586894 10630.8 8501.74)" width="321.91" height="1249.23"/>
       </g>
      </g>
      <g>
       <g>
        <rect class="fil5" transform="matrix(0.0551679 0.0551679 -0.0381941 0.0381941 11005.8 8602.93)" width="1328.97" height="295.32"/>
        <rect class="fil5" transform="matrix(0.0350392 0.0350392 -0.0586894 0.0586894 11005.8 8602.93)" width="321.91" height="1249.23"/>
       </g>
       <g>
        <rect class="fil5" transform="matrix(0.0551679 0.0551679 -0.0381941 0.0381941 10881.1 8603.53)" width="1328.97" height="295.32"/>
        <rect class="fil5" transform="matrix(0.0350392 0.0350392 -0.0586894 0.0586894 10881.1 8603.53)" width="321.91" height="1249.23"/>
       </g>
       <g>
        <rect class="fil5" transform="matrix(0.0551679 0.0551679 -0.0381941 0.0381941 11005.8 8501.14)" width="1328.97" height="295.32"/>
        <rect class="fil5" transform="matrix(0.0350392 0.0350392 -0.0586894 0.0586894 11005.8 8501.14)" width="321.91" height="1249.23"/>
       </g>
       <g>
        <rect class="fil5" transform="matrix(0.0551679 0.0551679 -0.0381941 0.0381941 10881.1 8501.74)" width="1328.97" height="295.32"/>
        <rect class="fil5" transform="matrix(0.0350392 0.0350392 -0.0586894 0.0586894 10881.1 8501.74)" width="321.91" height="1249.23"/>
       </g>
      </g>
     </g>
     <g>
      <g>
       <g>
        <rect class="fil5" transform="matrix(0.0551679 0.0551679 -0.0381941 0.0381941 10255.4 8602.93)" width="1328.97" height="295.32"/>
        <rect class="fil5" transform="matrix(0.0350392 0.0350392 -0.0586894 0.0586894 10255.4 8602.93)" width="321.91" height="1249.23"/>
       </g>
       <g>
        <rect class="fil5" transform="matrix(0.0551679 0.0551679 -0.0381941 0.0381941 10130.8 8603.53)" width="1328.97" height="295.32"/>
        <rect class="fil5" transform="matrix(0.0350392 0.0350392 -0.0586894 0.0586894 10130.8 8603.53)" width="321.91" height="1249.23"/>
       </g>
       <g>
        <rect class="fil5" transform="matrix(0.0551679 0.0551679 -0.0381941 0.0381941 10255.4 8501.14)" width="1328.97" height="295.32"/>
        <rect class="fil5" transform="matrix(0.0350392 0.0350392 -0.0586894 0.0586894 10255.4 8501.14)" width="321.91" height="1249.23"/>
       </g>
       <g>
        <rect class="fil5" transform="matrix(0.0551679 0.0551679 -0.0381941 0.0381941 10130.8 8501.74)" width="1328.97" height="295.32"/>
        <rect class="fil5" transform="matrix(0.0350392 0.0350392 -0.0586894 0.0586894 10130.8 8501.74)" width="321.91" height="1249.23"/>
       </g>
      </g>
      <g>
       <g>
        <rect class="fil5" transform="matrix(0.0551679 0.0551679 -0.0381941 0.0381941 10505.8 8602.93)" width="1328.97" height="295.32"/>
        <rect class="fil5" transform="matrix(0.0350392 0.0350392 -0.0586894 0.0586894 10505.8 8602.93)" width="321.91" height="1249.23"/>
       </g>
       <g>
        <rect class="fil5" transform="matrix(0.0551679 0.0551679 -0.0381941 0.0381941 10381.1 8603.53)" width="1328.97" height="295.32"/>
        <rect class="fil5" transform="matrix(0.0350392 0.0350392 -0.0586894 0.0586894 10381.1 8603.53)" width="321.91" height="1249.23"/>
       </g>
       <g>
        <rect class="fil5" transform="matrix(0.0551679 0.0551679 -0.0381941 0.0381941 10505.8 8501.14)" width="1328.97" height="295.32"/>
        <rect class="fil5" transform="matrix(0.0350392 0.0350392 -0.0586894 0.0586894 10505.8 8501.14)" width="321.91" height="1249.23"/>
       </g>
       <g>
        <rect class="fil5" transform="matrix(0.0551679 0.0551679 -0.0381941 0.0381941 10381.1 8501.74)" width="1328.97" height="295.32"/>
        <rect class="fil5" transform="matrix(0.0350392 0.0350392 -0.0586894 0.0586894 10381.1 8501.74)" width="321.91" height="1249.23"/>
       </g>
      </g>
     </g>
     <g>
      <g>
       <g>
        <rect class="fil5" transform="matrix(0.0551679 0.0551679 -0.0381941 0.0381941 10255.4 8602.93)" width="1328.97" height="295.32"/>
        <rect class="fil5" transform="matrix(0.0350392 0.0350392 -0.0586894 0.0586894 10255.4 8602.93)" width="321.91" height="1249.23"/>
       </g>
       <g>
        <rect class="fil5" transform="matrix(0.0551679 0.0551679 -0.0381941 0.0381941 10130.8 8603.53)" width="1328.97" height="295.32"/>
        <rect class="fil5" transform="matrix(0.0350392 0.0350392 -0.0586894 0.0586894 10130.8 8603.53)" width="321.91" height="1249.23"/>
       </g>
       <g>
        <rect class="fil5" transform="matrix(0.0551679 0.0551679 -0.0381941 0.0381941 10255.4 8501.14)" width="1328.97" height="295.32"/>
        <rect class="fil5" transform="matrix(0.0350392 0.0350392 -0.0586894 0.0586894 10255.4 8501.14)" width="321.91" height="1249.23"/>
       </g>
       <g>
        <rect class="fil5" transform="matrix(0.0551679 0.0551679 -0.0381941 0.0381941 10130.8 8501.74)" width="1328.97" height="295.32"/>
        <rect class="fil5" transform="matrix(0.0350392 0.0350392 -0.0586894 0.0586894 10130.8 8501.74)" width="321.91" height="1249.23"/>
       </g>
      </g>
      <g>
       <g>
        <rect class="fil5" transform="matrix(0.0551679 0.0551679 -0.0381941 0.0381941 10505.8 8602.93)" width="1328.97" height="295.32"/>
        <rect class="fil5" transform="matrix(0.0350392 0.0350392 -0.0586894 0.0586894 10505.8 8602.93)" width="321.91" height="1249.23"/>
       </g>
       <g>
        <rect class="fil5" transform="matrix(0.0551679 0.0551679 -0.0381941 0.0381941 10381.1 8603.53)" width="1328.97" height="295.32"/>
        <rect class="fil5" transform="matrix(0.0350392 0.0350392 -0.0586894 0.0586894 10381.1 8603.53)" width="321.91" height="1249.23"/>
       </g>
       <g>
        <rect class="fil5" transform="matrix(0.0551679 0.0551679 -0.0381941 0.0381941 10505.8 8501.14)" width="1328.97" height="295.32"/>
        <rect class="fil5" transform="matrix(0.0350392 0.0350392 -0.0586894 0.0586894 10505.8 8501.14)" width="321.91" height="1249.23"/>
       </g>
       <g>
        <rect class="fil5" transform="matrix(0.0551679 0.0551679 -0.0381941 0.0381941 10381.1 8501.74)" width="1328.97" height="295.32"/>
        <rect class="fil5" transform="matrix(0.0350392 0.0350392 -0.0586894 0.0586894 10381.1 8501.74)" width="321.91" height="1249.23"/>
       </g>
      </g>
     </g>
    </g>
    <g>
     <g>
      <g>
       <g>
        <rect class="fil5" transform="matrix(0.0551679 0.0551679 -0.0381941 0.0381941 9755.45 8602.93)" width="1328.97" height="295.32"/>
        <rect class="fil5" transform="matrix(0.0350392 0.0350392 -0.0586894 0.0586894 9755.45 8602.93)" width="321.91" height="1249.23"/>
       </g>
       <g>
        <rect class="fil5" transform="matrix(0.0551679 0.0551679 -0.0381941 0.0381941 9630.82 8603.53)" width="1328.97" height="295.32"/>
        <rect class="fil5" transform="matrix(0.0350392 0.0350392 -0.0586894 0.0586894 9630.82 8603.53)" width="321.91" height="1249.23"/>
       </g>
       <g>
        <rect class="fil5" transform="matrix(0.0551679 0.0551679 -0.0381941 0.0381941 9755.45 8501.14)" width="1328.97" height="295.32"/>
        <rect class="fil5" transform="matrix(0.0350392 0.0350392 -0.0586894 0.0586894 9755.45 8501.14)" width="321.91" height="1249.23"/>
       </g>
       <g>
        <rect class="fil5" transform="matrix(0.0551679 0.0551679 -0.0381941 0.0381941 9630.82 8501.74)" width="1328.97" height="295.32"/>
        <rect class="fil5" transform="matrix(0.0350392 0.0350392 -0.0586894 0.0586894 9630.82 8501.74)" width="321.91" height="1249.23"/>
       </g>
      </g>
      <g>
       <g>
        <rect class="fil5" transform="matrix(0.0551679 0.0551679 -0.0381941 0.0381941 10005.8 8602.93)" width="1328.97" height="295.32"/>
        <rect class="fil5" transform="matrix(0.0350392 0.0350392 -0.0586894 0.0586894 10005.8 8602.93)" width="321.91" height="1249.23"/>
       </g>
       <g>
        <rect class="fil5" transform="matrix(0.0551679 0.0551679 -0.0381941 0.0381941 9881.15 8603.53)" width="1328.97" height="295.32"/>
        <rect class="fil5" transform="matrix(0.0350392 0.0350392 -0.0586894 0.0586894 9881.15 8603.53)" width="321.91" height="1249.23"/>
       </g>
       <g>
        <rect class="fil5" transform="matrix(0.0551679 0.0551679 -0.0381941 0.0381941 10005.8 8501.14)" width="1328.97" height="295.32"/>
        <rect class="fil5" transform="matrix(0.0350392 0.0350392 -0.0586894 0.0586894 10005.8 8501.14)" width="321.91" height="1249.23"/>
       </g>
       <g>
        <rect class="fil5" transform="matrix(0.0551679 0.0551679 -0.0381941 0.0381941 9881.15 8501.74)" width="1328.97" height="295.32"/>
        <rect class="fil5" transform="matrix(0.0350392 0.0350392 -0.0586894 0.0586894 9881.15 8501.74)" width="321.91" height="1249.23"/>
       </g>
      </g>
     </g>
     <g>
      <g>
       <g>
        <rect class="fil5" transform="matrix(0.0551679 0.0551679 -0.0381941 0.0381941 9755.45 8602.93)" width="1328.97" height="295.32"/>
        <rect class="fil5" transform="matrix(0.0350392 0.0350392 -0.0586894 0.0586894 9755.45 8602.93)" width="321.91" height="1249.23"/>
       </g>
       <g>
        <rect class="fil5" transform="matrix(0.0551679 0.0551679 -0.0381941 0.0381941 9630.82 8603.53)" width="1328.97" height="295.32"/>
        <rect class="fil5" transform="matrix(0.0350392 0.0350392 -0.0586894 0.0586894 9630.82 8603.53)" width="321.91" height="1249.23"/>
       </g>
       <g>
        <rect class="fil5" transform="matrix(0.0551679 0.0551679 -0.0381941 0.0381941 9755.45 8501.14)" width="1328.97" height="295.32"/>
        <rect class="fil5" transform="matrix(0.0350392 0.0350392 -0.0586894 0.0586894 9755.45 8501.14)" width="321.91" height="1249.23"/>
       </g>
       <g>
        <rect class="fil5" transform="matrix(0.0551679 0.0551679 -0.0381941 0.0381941 9630.82 8501.74)" width="1328.97" height="295.32"/>
        <rect class="fil5" transform="matrix(0.0350392 0.0350392 -0.0586894 0.0586894 9630.82 8501.74)" width="321.91" height="1249.23"/>
       </g>
      </g>
      <g>
       <g>
        <rect class="fil5" transform="matrix(0.0551679 0.0551679 -0.0381941 0.0381941 10005.8 8602.93)" width="1328.97" height="295.32"/>
        <rect class="fil5" transform="matrix(0.0350392 0.0350392 -0.0586894 0.0586894 10005.8 8602.93)" width="321.91" height="1249.23"/>
       </g>
       <g>
        <rect class="fil5" transform="matrix(0.0551679 0.0551679 -0.0381941 0.0381941 9881.15 8603.53)" width="1328.97" height="295.32"/>
        <rect class="fil5" transform="matrix(0.0350392 0.0350392 -0.0586894 0.0586894 9881.15 8603.53)" width="321.91" height="1249.23"/>
       </g>
       <g>
        <rect class="fil5" transform="matrix(0.0551679 0.0551679 -0.0381941 0.0381941 10005.8 8501.14)" width="1328.97" height="295.32"/>
        <rect class="fil5" transform="matrix(0.0350392 0.0350392 -0.0586894 0.0586894 10005.8 8501.14)" width="321.91" height="1249.23"/>
       </g>
       <g>
        <rect class="fil5" transform="matrix(0.0551679 0.0551679 -0.0381941 0.0381941 9881.15 8501.74)" width="1328.97" height="295.32"/>
        <rect class="fil5" transform="matrix(0.0350392 0.0350392 -0.0586894 0.0586894 9881.15 8501.74)" width="321.91" height="1249.23"/>
       </g>
      </g>
     </g>
     <g>
      <g>
       <g>
        <rect class="fil5" transform="matrix(0.0551679 0.0551679 -0.0381941 0.0381941 9255.45 8602.93)" width="1328.97" height="295.32"/>
        <rect class="fil5" transform="matrix(0.0350392 0.0350392 -0.0586894 0.0586894 9255.45 8602.93)" width="321.91" height="1249.23"/>
       </g>
       <g>
        <rect class="fil5" transform="matrix(0.0551679 0.0551679 -0.0381941 0.0381941 9130.82 8603.53)" width="1328.97" height="295.32"/>
        <rect class="fil5" transform="matrix(0.0350392 0.0350392 -0.0586894 0.0586894 9130.82 8603.53)" width="321.91" height="1249.23"/>
       </g>
       <g>
        <rect class="fil5" transform="matrix(0.0551679 0.0551679 -0.0381941 0.0381941 9255.45 8501.14)" width="1328.97" height="295.32"/>
        <rect class="fil5" transform="matrix(0.0350392 0.0350392 -0.0586894 0.0586894 9255.45 8501.14)" width="321.91" height="1249.23"/>
       </g>
       <g>
        <rect class="fil5" transform="matrix(0.0551679 0.0551679 -0.0381941 0.0381941 9130.82 8501.74)" width="1328.97" height="295.32"/>
        <rect class="fil5" transform="matrix(0.0350392 0.0350392 -0.0586894 0.0586894 9130.82 8501.74)" width="321.91" height="1249.23"/>
       </g>
      </g>
      <g>
       <g>
        <rect class="fil5" transform="matrix(0.0551679 0.0551679 -0.0381941 0.0381941 9505.78 8602.93)" width="1328.97" height="295.32"/>
        <rect class="fil5" transform="matrix(0.0350392 0.0350392 -0.0586894 0.0586894 9505.78 8602.93)" width="321.91" height="1249.23"/>
       </g>
       <g>
        <rect class="fil5" transform="matrix(0.0551679 0.0551679 -0.0381941 0.0381941 9381.15 8603.53)" width="1328.97" height="295.32"/>
        <rect class="fil5" transform="matrix(0.0350392 0.0350392 -0.0586894 0.0586894 9381.15 8603.53)" width="321.91" height="1249.23"/>
       </g>
       <g>
        <rect class="fil5" transform="matrix(0.0551679 0.0551679 -0.0381941 0.0381941 9505.78 8501.14)" width="1328.97" height="295.32"/>
        <rect class="fil5" transform="matrix(0.0350392 0.0350392 -0.0586894 0.0586894 9505.78 8501.14)" width="321.91" height="1249.23"/>
       </g>
       <g>
        <rect class="fil5" transform="matrix(0.0551679 0.0551679 -0.0381941 0.0381941 9381.15 8501.74)" width="1328.97" height="295.32"/>
        <rect class="fil5" transform="matrix(0.0350392 0.0350392 -0.0586894 0.0586894 9381.15 8501.74)" width="321.91" height="1249.23"/>
       </g>
      </g>
     </g>
     <g>
      <g>
       <g>
        <rect class="fil5" transform="matrix(0.0551679 0.0551679 -0.0381941 0.0381941 9255.45 8602.93)" width="1328.97" height="295.32"/>
        <rect class="fil5" transform="matrix(0.0350392 0.0350392 -0.0586894 0.0586894 9255.45 8602.93)" width="321.91" height="1249.23"/>
       </g>
       <g>
        <rect class="fil5" transform="matrix(0.0551679 0.0551679 -0.0381941 0.0381941 9130.82 8603.53)" width="1328.97" height="295.32"/>
        <rect class="fil5" transform="matrix(0.0350392 0.0350392 -0.0586894 0.0586894 9130.82 8603.53)" width="321.91" height="1249.23"/>
       </g>
       <g>
        <rect class="fil5" transform="matrix(0.0551679 0.0551679 -0.0381941 0.0381941 9255.45 8501.14)" width="1328.97" height="295.32"/>
        <rect class="fil5" transform="matrix(0.0350392 0.0350392 -0.0586894 0.0586894 9255.45 8501.14)" width="321.91" height="1249.23"/>
       </g>
       <g>
        <rect class="fil5" transform="matrix(0.0551679 0.0551679 -0.0381941 0.0381941 9130.82 8501.74)" width="1328.97" height="295.32"/>
        <rect class="fil5" transform="matrix(0.0350392 0.0350392 -0.0586894 0.0586894 9130.82 8501.74)" width="321.91" height="1249.23"/>
       </g>
      </g>
      <g>
       <g>
        <rect class="fil5" transform="matrix(0.0551679 0.0551679 -0.0381941 0.0381941 9505.78 8602.93)" width="1328.97" height="295.32"/>
        <rect class="fil5" transform="matrix(0.0350392 0.0350392 -0.0586894 0.0586894 9505.78 8602.93)" width="321.91" height="1249.23"/>
       </g>
       <g>
        <rect class="fil5" transform="matrix(0.0551679 0.0551679 -0.0381941 0.0381941 9381.15 8603.53)" width="1328.97" height="295.32"/>
        <rect class="fil5" transform="matrix(0.0350392 0.0350392 -0.0586894 0.0586894 9381.15 8603.53)" width="321.91" height="1249.23"/>
       </g>
       <g>
        <rect class="fil5" transform="matrix(0.0551679 0.0551679 -0.0381941 0.0381941 9505.78 8501.14)" width="1328.97" height="295.32"/>
        <rect class="fil5" transform="matrix(0.0350392 0.0350392 -0.0586894 0.0586894 9505.78 8501.14)" width="321.91" height="1249.23"/>
       </g>
       <g>
        <rect class="fil5" transform="matrix(0.0551679 0.0551679 -0.0381941 0.0381941 9381.15 8501.74)" width="1328.97" height="295.32"/>
        <rect class="fil5" transform="matrix(0.0350392 0.0350392 -0.0586894 0.0586894 9381.15 8501.74)" width="321.91" height="1249.23"/>
       </g>
      </g>
     </g>
    </g>
   </g>
   <g>
    <g>
     <g>
      <g>
       <g>
        <rect class="fil5" transform="matrix(0.0551679 0.0551679 -0.0381941 0.0381941 8755.45 8602.93)" width="1328.97" height="295.32"/>
        <rect class="fil5" transform="matrix(0.0350392 0.0350392 -0.0586894 0.0586894 8755.45 8602.93)" width="321.91" height="1249.23"/>
       </g>
       <g>
        <rect class="fil5" transform="matrix(0.0551679 0.0551679 -0.0381941 0.0381941 8630.82 8603.53)" width="1328.97" height="295.32"/>
        <rect class="fil5" transform="matrix(0.0350392 0.0350392 -0.0586894 0.0586894 8630.82 8603.53)" width="321.91" height="1249.23"/>
       </g>
       <g>
        <rect class="fil5" transform="matrix(0.0551679 0.0551679 -0.0381941 0.0381941 8755.45 8501.14)" width="1328.97" height="295.32"/>
        <rect class="fil5" transform="matrix(0.0350392 0.0350392 -0.0586894 0.0586894 8755.45 8501.14)" width="321.91" height="1249.23"/>
       </g>
       <g>
        <rect class="fil5" transform="matrix(0.0551679 0.0551679 -0.0381941 0.0381941 8630.82 8501.74)" width="1328.97" height="295.32"/>
        <rect class="fil5" transform="matrix(0.0350392 0.0350392 -0.0586894 0.0586894 8630.82 8501.74)" width="321.91" height="1249.23"/>
       </g>
      </g>
      <g>
       <g>
        <rect class="fil5" transform="matrix(0.0551679 0.0551679 -0.0381941 0.0381941 9005.78 8602.93)" width="1328.97" height="295.32"/>
        <rect class="fil5" transform="matrix(0.0350392 0.0350392 -0.0586894 0.0586894 9005.78 8602.93)" width="321.91" height="1249.23"/>
       </g>
       <g>
        <rect class="fil5" transform="matrix(0.0551679 0.0551679 -0.0381941 0.0381941 8881.15 8603.53)" width="1328.97" height="295.32"/>
        <rect class="fil5" transform="matrix(0.0350392 0.0350392 -0.0586894 0.0586894 8881.15 8603.53)" width="321.91" height="1249.23"/>
       </g>
       <g>
        <rect class="fil5" transform="matrix(0.0551679 0.0551679 -0.0381941 0.0381941 9005.78 8501.14)" width="1328.97" height="295.32"/>
        <rect class="fil5" transform="matrix(0.0350392 0.0350392 -0.0586894 0.0586894 9005.78 8501.14)" width="321.91" height="1249.23"/>
       </g>
       <g>
        <rect class="fil5" transform="matrix(0.0551679 0.0551679 -0.0381941 0.0381941 8881.15 8501.74)" width="1328.97" height="295.32"/>
        <rect class="fil5" transform="matrix(0.0350392 0.0350392 -0.0586894 0.0586894 8881.15 8501.74)" width="321.91" height="1249.23"/>
       </g>
      </g>
     </g>
     <g>
      <g>
       <g>
        <rect class="fil5" transform="matrix(0.0551679 0.0551679 -0.0381941 0.0381941 8755.45 8602.93)" width="1328.97" height="295.32"/>
        <rect class="fil5" transform="matrix(0.0350392 0.0350392 -0.0586894 0.0586894 8755.45 8602.93)" width="321.91" height="1249.23"/>
       </g>
       <g>
        <rect class="fil5" transform="matrix(0.0551679 0.0551679 -0.0381941 0.0381941 8630.82 8603.53)" width="1328.97" height="295.32"/>
        <rect class="fil5" transform="matrix(0.0350392 0.0350392 -0.0586894 0.0586894 8630.82 8603.53)" width="321.91" height="1249.23"/>
       </g>
       <g>
        <rect class="fil5" transform="matrix(0.0551679 0.0551679 -0.0381941 0.0381941 8755.45 8501.14)" width="1328.97" height="295.32"/>
        <rect class="fil5" transform="matrix(0.0350392 0.0350392 -0.0586894 0.0586894 8755.45 8501.14)" width="321.91" height="1249.23"/>
       </g>
       <g>
        <rect class="fil5" transform="matrix(0.0551679 0.0551679 -0.0381941 0.0381941 8630.82 8501.74)" width="1328.97" height="295.32"/>
        <rect class="fil5" transform="matrix(0.0350392 0.0350392 -0.0586894 0.0586894 8630.82 8501.74)" width="321.91" height="1249.23"/>
       </g>
      </g>
      <g>
       <g>
        <rect class="fil5" transform="matrix(0.0551679 0.0551679 -0.0381941 0.0381941 9005.78 8602.93)" width="1328.97" height="295.32"/>
        <rect class="fil5" transform="matrix(0.0350392 0.0350392 -0.0586894 0.0586894 9005.78 8602.93)" width="321.91" height="1249.23"/>
       </g>
       <g>
        <rect class="fil5" transform="matrix(0.0551679 0.0551679 -0.0381941 0.0381941 8881.15 8603.53)" width="1328.97" height="295.32"/>
        <rect class="fil5" transform="matrix(0.0350392 0.0350392 -0.0586894 0.0586894 8881.15 8603.53)" width="321.91" height="1249.23"/>
       </g>
       <g>
        <rect class="fil5" transform="matrix(0.0551679 0.0551679 -0.0381941 0.0381941 9005.78 8501.14)" width="1328.97" height="295.32"/>
        <rect class="fil5" transform="matrix(0.0350392 0.0350392 -0.0586894 0.0586894 9005.78 8501.14)" width="321.91" height="1249.23"/>
       </g>
       <g>
        <rect class="fil5" transform="matrix(0.0551679 0.0551679 -0.0381941 0.0381941 8881.15 8501.74)" width="1328.97" height="295.32"/>
        <rect class="fil5" transform="matrix(0.0350392 0.0350392 -0.0586894 0.0586894 8881.15 8501.74)" width="321.91" height="1249.23"/>
       </g>
      </g>
     </g>
     <g>
      <g>
       <g>
        <rect class="fil5" transform="matrix(0.0551679 0.0551679 -0.0381941 0.0381941 8255.45 8602.93)" width="1328.97" height="295.32"/>
        <rect class="fil5" transform="matrix(0.0350392 0.0350392 -0.0586894 0.0586894 8255.45 8602.93)" width="321.91" height="1249.23"/>
       </g>
       <g>
        <rect class="fil5" transform="matrix(0.0551679 0.0551679 -0.0381941 0.0381941 8130.82 8603.53)" width="1328.97" height="295.32"/>
        <rect class="fil5" transform="matrix(0.0350392 0.0350392 -0.0586894 0.0586894 8130.82 8603.53)" width="321.91" height="1249.23"/>
       </g>
       <g>
        <rect class="fil5" transform="matrix(0.0551679 0.0551679 -0.0381941 0.0381941 8255.45 8501.14)" width="1328.97" height="295.32"/>
        <rect class="fil5" transform="matrix(0.0350392 0.0350392 -0.0586894 0.0586894 8255.45 8501.14)" width="321.91" height="1249.23"/>
       </g>
       <g>
        <rect class="fil5" transform="matrix(0.0551679 0.0551679 -0.0381941 0.0381941 8130.82 8501.74)" width="1328.97" height="295.32"/>
        <rect class="fil5" transform="matrix(0.0350392 0.0350392 -0.0586894 0.0586894 8130.82 8501.74)" width="321.91" height="1249.23"/>
       </g>
      </g>
      <g>
       <g>
        <rect class="fil5" transform="matrix(0.0551679 0.0551679 -0.0381941 0.0381941 8505.78 8602.93)" width="1328.97" height="295.32"/>
        <rect class="fil5" transform="matrix(0.0350392 0.0350392 -0.0586894 0.0586894 8505.78 8602.93)" width="321.91" height="1249.23"/>
       </g>
       <g>
        <rect class="fil5" transform="matrix(0.0551679 0.0551679 -0.0381941 0.0381941 8381.15 8603.53)" width="1328.97" height="295.32"/>
        <rect class="fil5" transform="matrix(0.0350392 0.0350392 -0.0586894 0.0586894 8381.15 8603.53)" width="321.91" height="1249.23"/>
       </g>
       <g>
        <rect class="fil5" transform="matrix(0.0551679 0.0551679 -0.0381941 0.0381941 8505.78 8501.14)" width="1328.97" height="295.32"/>
        <rect class="fil5" transform="matrix(0.0350392 0.0350392 -0.0586894 0.0586894 8505.78 8501.14)" width="321.91" height="1249.23"/>
       </g>
       <g>
        <rect class="fil5" transform="matrix(0.0551679 0.0551679 -0.0381941 0.0381941 8381.15 8501.74)" width="1328.97" height="295.32"/>
        <rect class="fil5" transform="matrix(0.0350392 0.0350392 -0.0586894 0.0586894 8381.15 8501.74)" width="321.91" height="1249.23"/>
       </g>
      </g>
     </g>
     <g>
      <g>
       <g>
        <rect class="fil5" transform="matrix(0.0551679 0.0551679 -0.0381941 0.0381941 8255.45 8602.93)" width="1328.97" height="295.32"/>
        <rect class="fil5" transform="matrix(0.0350392 0.0350392 -0.0586894 0.0586894 8255.45 8602.93)" width="321.91" height="1249.23"/>
       </g>
       <g>
        <rect class="fil5" transform="matrix(0.0551679 0.0551679 -0.0381941 0.0381941 8130.82 8603.53)" width="1328.97" height="295.32"/>
        <rect class="fil5" transform="matrix(0.0350392 0.0350392 -0.0586894 0.0586894 8130.82 8603.53)" width="321.91" height="1249.23"/>
       </g>
       <g>
        <rect class="fil5" transform="matrix(0.0551679 0.0551679 -0.0381941 0.0381941 8255.45 8501.14)" width="1328.97" height="295.32"/>
        <rect class="fil5" transform="matrix(0.0350392 0.0350392 -0.0586894 0.0586894 8255.45 8501.14)" width="321.91" height="1249.23"/>
       </g>
       <g>
        <rect class="fil5" transform="matrix(0.0551679 0.0551679 -0.0381941 0.0381941 8130.82 8501.74)" width="1328.97" height="295.32"/>
        <rect class="fil5" transform="matrix(0.0350392 0.0350392 -0.0586894 0.0586894 8130.82 8501.74)" width="321.91" height="1249.23"/>
       </g>
      </g>
      <g>
       <g>
        <rect class="fil5" transform="matrix(0.0551679 0.0551679 -0.0381941 0.0381941 8505.78 8602.93)" width="1328.97" height="295.32"/>
        <rect class="fil5" transform="matrix(0.0350392 0.0350392 -0.0586894 0.0586894 8505.78 8602.93)" width="321.91" height="1249.23"/>
       </g>
       <g>
        <rect class="fil5" transform="matrix(0.0551679 0.0551679 -0.0381941 0.0381941 8381.15 8603.53)" width="1328.97" height="295.32"/>
        <rect class="fil5" transform="matrix(0.0350392 0.0350392 -0.0586894 0.0586894 8381.15 8603.53)" width="321.91" height="1249.23"/>
       </g>
       <g>
        <rect class="fil5" transform="matrix(0.0551679 0.0551679 -0.0381941 0.0381941 8505.78 8501.14)" width="1328.97" height="295.32"/>
        <rect class="fil5" transform="matrix(0.0350392 0.0350392 -0.0586894 0.0586894 8505.78 8501.14)" width="321.91" height="1249.23"/>
       </g>
       <g>
        <rect class="fil5" transform="matrix(0.0551679 0.0551679 -0.0381941 0.0381941 8381.15 8501.74)" width="1328.97" height="295.32"/>
        <rect class="fil5" transform="matrix(0.0350392 0.0350392 -0.0586894 0.0586894 8381.15 8501.74)" width="321.91" height="1249.23"/>
       </g>
      </g>
     </g>
    </g>
    <g>
     <g>
      <g>
       <g>
        <rect class="fil5" transform="matrix(0.0551679 0.0551679 -0.0381941 0.0381941 7755.45 8602.93)" width="1328.97" height="295.32"/>
        <rect class="fil5" transform="matrix(0.0350392 0.0350392 -0.0586894 0.0586894 7755.45 8602.93)" width="321.91" height="1249.23"/>
       </g>
       <g>
        <rect class="fil5" transform="matrix(0.0551679 0.0551679 -0.0381941 0.0381941 7630.82 8603.53)" width="1328.97" height="295.32"/>
        <rect class="fil5" transform="matrix(0.0350392 0.0350392 -0.0586894 0.0586894 7630.82 8603.53)" width="321.91" height="1249.23"/>
       </g>
       <g>
        <rect class="fil5" transform="matrix(0.0551679 0.0551679 -0.0381941 0.0381941 7755.45 8501.14)" width="1328.97" height="295.32"/>
        <rect class="fil5" transform="matrix(0.0350392 0.0350392 -0.0586894 0.0586894 7755.45 8501.14)" width="321.91" height="1249.23"/>
       </g>
       <g>
        <rect class="fil5" transform="matrix(0.0551679 0.0551679 -0.0381941 0.0381941 7630.82 8501.74)" width="1328.97" height="295.32"/>
        <rect class="fil5" transform="matrix(0.0350392 0.0350392 -0.0586894 0.0586894 7630.82 8501.74)" width="321.91" height="1249.23"/>
       </g>
      </g>
      <g>
       <g>
        <rect class="fil5" transform="matrix(0.0551679 0.0551679 -0.0381941 0.0381941 8005.78 8602.93)" width="1328.97" height="295.32"/>
        <rect class="fil5" transform="matrix(0.0350392 0.0350392 -0.0586894 0.0586894 8005.78 8602.93)" width="321.91" height="1249.23"/>
       </g>
       <g>
        <rect class="fil5" transform="matrix(0.0551679 0.0551679 -0.0381941 0.0381941 7881.15 8603.53)" width="1328.97" height="295.32"/>
        <rect class="fil5" transform="matrix(0.0350392 0.0350392 -0.0586894 0.0586894 7881.15 8603.53)" width="321.91" height="1249.23"/>
       </g>
       <g>
        <rect class="fil5" transform="matrix(0.0551679 0.0551679 -0.0381941 0.0381941 8005.78 8501.14)" width="1328.97" height="295.32"/>
        <rect class="fil5" transform="matrix(0.0350392 0.0350392 -0.0586894 0.0586894 8005.78 8501.14)" width="321.91" height="1249.23"/>
       </g>
       <g>
        <rect class="fil5" transform="matrix(0.0551679 0.0551679 -0.0381941 0.0381941 7881.15 8501.74)" width="1328.97" height="295.32"/>
        <rect class="fil5" transform="matrix(0.0350392 0.0350392 -0.0586894 0.0586894 7881.15 8501.74)" width="321.91" height="1249.23"/>
       </g>
      </g>
     </g>
     <g>
      <g>
       <g>
        <rect class="fil5" transform="matrix(0.0551679 0.0551679 -0.0381941 0.0381941 7755.45 8602.93)" width="1328.97" height="295.32"/>
        <rect class="fil5" transform="matrix(0.0350392 0.0350392 -0.0586894 0.0586894 7755.45 8602.93)" width="321.91" height="1249.23"/>
       </g>
       <g>
        <rect class="fil5" transform="matrix(0.0551679 0.0551679 -0.0381941 0.0381941 7630.82 8603.53)" width="1328.97" height="295.32"/>
        <rect class="fil5" transform="matrix(0.0350392 0.0350392 -0.0586894 0.0586894 7630.82 8603.53)" width="321.91" height="1249.23"/>
       </g>
       <g>
        <rect class="fil5" transform="matrix(0.0551679 0.0551679 -0.0381941 0.0381941 7755.45 8501.14)" width="1328.97" height="295.32"/>
        <rect class="fil5" transform="matrix(0.0350392 0.0350392 -0.0586894 0.0586894 7755.45 8501.14)" width="321.91" height="1249.23"/>
       </g>
       <g>
        <rect class="fil5" transform="matrix(0.0551679 0.0551679 -0.0381941 0.0381941 7630.82 8501.74)" width="1328.97" height="295.32"/>
        <rect class="fil5" transform="matrix(0.0350392 0.0350392 -0.0586894 0.0586894 7630.82 8501.74)" width="321.91" height="1249.23"/>
       </g>
      </g>
      <g>
       <g>
        <rect class="fil5" transform="matrix(0.0551679 0.0551679 -0.0381941 0.0381941 8005.78 8602.93)" width="1328.97" height="295.32"/>
        <rect class="fil5" transform="matrix(0.0350392 0.0350392 -0.0586894 0.0586894 8005.78 8602.93)" width="321.91" height="1249.23"/>
       </g>
       <g>
        <rect class="fil5" transform="matrix(0.0551679 0.0551679 -0.0381941 0.0381941 7881.15 8603.53)" width="1328.97" height="295.32"/>
        <rect class="fil5" transform="matrix(0.0350392 0.0350392 -0.0586894 0.0586894 7881.15 8603.53)" width="321.91" height="1249.23"/>
       </g>
       <g>
        <rect class="fil5" transform="matrix(0.0551679 0.0551679 -0.0381941 0.0381941 8005.78 8501.14)" width="1328.97" height="295.32"/>
        <rect class="fil5" transform="matrix(0.0350392 0.0350392 -0.0586894 0.0586894 8005.78 8501.14)" width="321.91" height="1249.23"/>
       </g>
       <g>
        <rect class="fil5" transform="matrix(0.0551679 0.0551679 -0.0381941 0.0381941 7881.15 8501.74)" width="1328.97" height="295.32"/>
        <rect class="fil5" transform="matrix(0.0350392 0.0350392 -0.0586894 0.0586894 7881.15 8501.74)" width="321.91" height="1249.23"/>
       </g>
      </g>
     </g>
     <g>
      <g>
       <g>
        <rect class="fil5" transform="matrix(0.0551679 0.0551679 -0.0381941 0.0381941 7255.45 8602.93)" width="1328.97" height="295.32"/>
        <rect class="fil5" transform="matrix(0.0350392 0.0350392 -0.0586894 0.0586894 7255.45 8602.93)" width="321.91" height="1249.23"/>
       </g>
       <g>
        <rect class="fil5" transform="matrix(0.0551679 0.0551679 -0.0381941 0.0381941 7130.82 8603.53)" width="1328.97" height="295.32"/>
        <rect class="fil5" transform="matrix(0.0350392 0.0350392 -0.0586894 0.0586894 7130.82 8603.53)" width="321.91" height="1249.23"/>
       </g>
       <g>
        <rect class="fil5" transform="matrix(0.0551679 0.0551679 -0.0381941 0.0381941 7255.45 8501.14)" width="1328.97" height="295.32"/>
        <rect class="fil5" transform="matrix(0.0350392 0.0350392 -0.0586894 0.0586894 7255.45 8501.14)" width="321.91" height="1249.23"/>
       </g>
       <g>
        <rect class="fil5" transform="matrix(0.0551679 0.0551679 -0.0381941 0.0381941 7130.82 8501.74)" width="1328.97" height="295.32"/>
        <rect class="fil5" transform="matrix(0.0350392 0.0350392 -0.0586894 0.0586894 7130.82 8501.74)" width="321.91" height="1249.23"/>
       </g>
      </g>
      <g>
       <g>
        <rect class="fil5" transform="matrix(0.0551679 0.0551679 -0.0381941 0.0381941 7505.78 8602.93)" width="1328.97" height="295.32"/>
        <rect class="fil5" transform="matrix(0.0350392 0.0350392 -0.0586894 0.0586894 7505.78 8602.93)" width="321.91" height="1249.23"/>
       </g>
       <g>
        <rect class="fil5" transform="matrix(0.0551679 0.0551679 -0.0381941 0.0381941 7381.15 8603.53)" width="1328.97" height="295.32"/>
        <rect class="fil5" transform="matrix(0.0350392 0.0350392 -0.0586894 0.0586894 7381.15 8603.53)" width="321.91" height="1249.23"/>
       </g>
       <g>
        <rect class="fil5" transform="matrix(0.0551679 0.0551679 -0.0381941 0.0381941 7505.78 8501.14)" width="1328.97" height="295.32"/>
        <rect class="fil5" transform="matrix(0.0350392 0.0350392 -0.0586894 0.0586894 7505.78 8501.14)" width="321.91" height="1249.23"/>
       </g>
       <g>
        <rect class="fil5" transform="matrix(0.0551679 0.0551679 -0.0381941 0.0381941 7381.15 8501.74)" width="1328.97" height="295.32"/>
        <rect class="fil5" transform="matrix(0.0350392 0.0350392 -0.0586894 0.0586894 7381.15 8501.74)" width="321.91" height="1249.23"/>
       </g>
      </g>
     </g>
     <g>
      <g>
       <g>
        <rect class="fil5" transform="matrix(0.0551679 0.0551679 -0.0381941 0.0381941 7255.45 8602.93)" width="1328.97" height="295.32"/>
        <rect class="fil5" transform="matrix(0.0350392 0.0350392 -0.0586894 0.0586894 7255.45 8602.93)" width="321.91" height="1249.23"/>
       </g>
       <g>
        <rect class="fil5" transform="matrix(0.0551679 0.0551679 -0.0381941 0.0381941 7130.82 8603.53)" width="1328.97" height="295.32"/>
        <rect class="fil5" transform="matrix(0.0350392 0.0350392 -0.0586894 0.0586894 7130.82 8603.53)" width="321.91" height="1249.23"/>
       </g>
       <g>
        <rect class="fil5" transform="matrix(0.0551679 0.0551679 -0.0381941 0.0381941 7255.45 8501.14)" width="1328.97" height="295.32"/>
        <rect class="fil5" transform="matrix(0.0350392 0.0350392 -0.0586894 0.0586894 7255.45 8501.14)" width="321.91" height="1249.23"/>
       </g>
       <g>
        <rect class="fil5" transform="matrix(0.0551679 0.0551679 -0.0381941 0.0381941 7130.82 8501.74)" width="1328.97" height="295.32"/>
        <rect class="fil5" transform="matrix(0.0350392 0.0350392 -0.0586894 0.0586894 7130.82 8501.74)" width="321.91" height="1249.23"/>
       </g>
      </g>
      <g>
       <g>
        <rect class="fil5" transform="matrix(0.0551679 0.0551679 -0.0381941 0.0381941 7505.78 8602.93)" width="1328.97" height="295.32"/>
        <rect class="fil5" transform="matrix(0.0350392 0.0350392 -0.0586894 0.0586894 7505.78 8602.93)" width="321.91" height="1249.23"/>
       </g>
       <g>
        <rect class="fil5" transform="matrix(0.0551679 0.0551679 -0.0381941 0.0381941 7381.15 8603.53)" width="1328.97" height="295.32"/>
        <rect class="fil5" transform="matrix(0.0350392 0.0350392 -0.0586894 0.0586894 7381.15 8603.53)" width="321.91" height="1249.23"/>
       </g>
       <g>
        <rect class="fil5" transform="matrix(0.0551679 0.0551679 -0.0381941 0.0381941 7505.78 8501.14)" width="1328.97" height="295.32"/>
        <rect class="fil5" transform="matrix(0.0350392 0.0350392 -0.0586894 0.0586894 7505.78 8501.14)" width="321.91" height="1249.23"/>
       </g>
       <g>
        <rect class="fil5" transform="matrix(0.0551679 0.0551679 -0.0381941 0.0381941 7381.15 8501.74)" width="1328.97" height="295.32"/>
        <rect class="fil5" transform="matrix(0.0350392 0.0350392 -0.0586894 0.0586894 7381.15 8501.74)" width="321.91" height="1249.23"/>
       </g>
      </g>
     </g>
    </g>
   </g>
   <g>
    <g>
     <g>
      <g>
       <rect class="fil5" transform="matrix(0.0551679 0.0551679 -0.0381941 0.0381941 6755.45 8602.93)" width="1328.97" height="295.32"/>
       <rect class="fil5" transform="matrix(0.0350392 0.0350392 -0.0586894 0.0586894 6755.45 8602.93)" width="321.91" height="1249.23"/>
      </g>
      <g>
       <rect class="fil5" transform="matrix(0.0551679 0.0551679 -0.0381941 0.0381941 6630.82 8603.53)" width="1328.97" height="295.32"/>
       <rect class="fil5" transform="matrix(0.0350392 0.0350392 -0.0586894 0.0586894 6630.82 8603.53)" width="321.91" height="1249.23"/>
      </g>
      <g>
       <rect class="fil5" transform="matrix(0.0551679 0.0551679 -0.0381941 0.0381941 6755.45 8501.14)" width="1328.97" height="295.32"/>
       <rect class="fil5" transform="matrix(0.0350392 0.0350392 -0.0586894 0.0586894 6755.45 8501.14)" width="321.91" height="1249.23"/>
      </g>
      <g>
       <rect class="fil5" transform="matrix(0.0551679 0.0551679 -0.0381941 0.0381941 6630.82 8501.74)" width="1328.97" height="295.32"/>
       <rect class="fil5" transform="matrix(0.0350392 0.0350392 -0.0586894 0.0586894 6630.82 8501.74)" width="321.91" height="1249.23"/>
      </g>
     </g>
     <g>
      <g>
       <rect class="fil5" transform="matrix(0.0551679 0.0551679 -0.0381941 0.0381941 7005.78 8602.93)" width="1328.97" height="295.32"/>
       <rect class="fil5" transform="matrix(0.0350392 0.0350392 -0.0586894 0.0586894 7005.78 8602.93)" width="321.91" height="1249.23"/>
      </g>
      <g>
       <rect class="fil5" transform="matrix(0.0551679 0.0551679 -0.0381941 0.0381941 6881.15 8603.53)" width="1328.97" height="295.32"/>
       <rect class="fil5" transform="matrix(0.0350392 0.0350392 -0.0586894 0.0586894 6881.15 8603.53)" width="321.91" height="1249.23"/>
      </g>
      <g>
       <rect class="fil5" transform="matrix(0.0551679 0.0551679 -0.0381941 0.0381941 7005.78 8501.14)" width="1328.97" height="295.32"/>
       <rect class="fil5" transform="matrix(0.0350392 0.0350392 -0.0586894 0.0586894 7005.78 8501.14)" width="321.91" height="1249.23"/>
      </g>
      <g>
       <rect class="fil5" transform="matrix(0.0551679 0.0551679 -0.0381941 0.0381941 6881.15 8501.74)" width="1328.97" height="295.32"/>
       <rect class="fil5" transform="matrix(0.0350392 0.0350392 -0.0586894 0.0586894 6881.15 8501.74)" width="321.91" height="1249.23"/>
      </g>
     </g>
    </g>
    <g>
     <g>
      <g>
       <rect class="fil5" transform="matrix(0.0551679 0.0551679 -0.0381941 0.0381941 6755.45 8602.93)" width="1328.97" height="295.32"/>
       <rect class="fil5" transform="matrix(0.0350392 0.0350392 -0.0586894 0.0586894 6755.45 8602.93)" width="321.91" height="1249.23"/>
      </g>
      <g>
       <rect class="fil5" transform="matrix(0.0551679 0.0551679 -0.0381941 0.0381941 6630.82 8603.53)" width="1328.97" height="295.32"/>
       <rect class="fil5" transform="matrix(0.0350392 0.0350392 -0.0586894 0.0586894 6630.82 8603.53)" width="321.91" height="1249.23"/>
      </g>
      <g>
       <rect class="fil5" transform="matrix(0.0551679 0.0551679 -0.0381941 0.0381941 6755.45 8501.14)" width="1328.97" height="295.32"/>
       <rect class="fil5" transform="matrix(0.0350392 0.0350392 -0.0586894 0.0586894 6755.45 8501.14)" width="321.91" height="1249.23"/>
      </g>
      <g>
       <rect class="fil5" transform="matrix(0.0551679 0.0551679 -0.0381941 0.0381941 6630.82 8501.74)" width="1328.97" height="295.32"/>
       <rect class="fil5" transform="matrix(0.0350392 0.0350392 -0.0586894 0.0586894 6630.82 8501.74)" width="321.91" height="1249.23"/>
      </g>
     </g>
     <g>
      <g>
       <rect class="fil5" transform="matrix(0.0551679 0.0551679 -0.0381941 0.0381941 7005.78 8602.93)" width="1328.97" height="295.32"/>
       <rect class="fil5" transform="matrix(0.0350392 0.0350392 -0.0586894 0.0586894 7005.78 8602.93)" width="321.91" height="1249.23"/>
      </g>
      <g>
       <rect class="fil5" transform="matrix(0.0551679 0.0551679 -0.0381941 0.0381941 6881.15 8603.53)" width="1328.97" height="295.32"/>
       <rect class="fil5" transform="matrix(0.0350392 0.0350392 -0.0586894 0.0586894 6881.15 8603.53)" width="321.91" height="1249.23"/>
      </g>
      <g>
       <rect class="fil5" transform="matrix(0.0551679 0.0551679 -0.0381941 0.0381941 7005.78 8501.14)" width="1328.97" height="295.32"/>
       <rect class="fil5" transform="matrix(0.0350392 0.0350392 -0.0586894 0.0586894 7005.78 8501.14)" width="321.91" height="1249.23"/>
      </g>
      <g>
       <rect class="fil5" transform="matrix(0.0551679 0.0551679 -0.0381941 0.0381941 6881.15 8501.74)" width="1328.97" height="295.32"/>
       <rect class="fil5" transform="matrix(0.0350392 0.0350392 -0.0586894 0.0586894 6881.15 8501.74)" width="321.91" height="1249.23"/>
      </g>
     </g>
    </g>
    <g>
     <g>
      <g>
       <rect class="fil5" transform="matrix(0.0551679 0.0551679 -0.0381941 0.0381941 6255.45 8602.93)" width="1328.97" height="295.32"/>
       <rect class="fil5" transform="matrix(0.0350392 0.0350392 -0.0586894 0.0586894 6255.45 8602.93)" width="321.91" height="1249.23"/>
      </g>
      <g>
       <rect class="fil5" transform="matrix(0.0551679 0.0551679 -0.0381941 0.0381941 6130.82 8603.53)" width="1328.97" height="295.32"/>
       <rect class="fil5" transform="matrix(0.0350392 0.0350392 -0.0586894 0.0586894 6130.82 8603.53)" width="321.91" height="1249.23"/>
      </g>
      <g>
       <rect class="fil5" transform="matrix(0.0551679 0.0551679 -0.0381941 0.0381941 6255.45 8501.14)" width="1328.97" height="295.32"/>
       <rect class="fil5" transform="matrix(0.0350392 0.0350392 -0.0586894 0.0586894 6255.45 8501.14)" width="321.91" height="1249.23"/>
      </g>
      <g>
       <rect class="fil5" transform="matrix(0.0551679 0.0551679 -0.0381941 0.0381941 6130.82 8501.74)" width="1328.97" height="295.32"/>
       <rect class="fil5" transform="matrix(0.0350392 0.0350392 -0.0586894 0.0586894 6130.82 8501.74)" width="321.91" height="1249.23"/>
      </g>
     </g>
     <g>
      <g>
       <rect class="fil5" transform="matrix(0.0551679 0.0551679 -0.0381941 0.0381941 6505.78 8602.93)" width="1328.97" height="295.32"/>
       <rect class="fil5" transform="matrix(0.0350392 0.0350392 -0.0586894 0.0586894 6505.78 8602.93)" width="321.91" height="1249.23"/>
      </g>
      <g>
       <rect class="fil5" transform="matrix(0.0551679 0.0551679 -0.0381941 0.0381941 6381.15 8603.53)" width="1328.97" height="295.32"/>
       <rect class="fil5" transform="matrix(0.0350392 0.0350392 -0.0586894 0.0586894 6381.15 8603.53)" width="321.91" height="1249.23"/>
      </g>
      <g>
       <rect class="fil5" transform="matrix(0.0551679 0.0551679 -0.0381941 0.0381941 6505.78 8501.14)" width="1328.97" height="295.32"/>
       <rect class="fil5" transform="matrix(0.0350392 0.0350392 -0.0586894 0.0586894 6505.78 8501.14)" width="321.91" height="1249.23"/>
      </g>
      <g>
       <rect class="fil5" transform="matrix(0.0551679 0.0551679 -0.0381941 0.0381941 6381.15 8501.74)" width="1328.97" height="295.32"/>
       <rect class="fil5" transform="matrix(0.0350392 0.0350392 -0.0586894 0.0586894 6381.15 8501.74)" width="321.91" height="1249.23"/>
      </g>
     </g>
    </g>
    <g>
     <g>
      <g>
       <rect class="fil5" transform="matrix(0.0551679 0.0551679 -0.0381941 0.0381941 6255.45 8602.93)" width="1328.97" height="295.32"/>
       <rect class="fil5" transform="matrix(0.0350392 0.0350392 -0.0586894 0.0586894 6255.45 8602.93)" width="321.91" height="1249.23"/>
      </g>
      <g>
       <rect class="fil5" transform="matrix(0.0551679 0.0551679 -0.0381941 0.0381941 6130.82 8603.53)" width="1328.97" height="295.32"/>
       <rect class="fil5" transform="matrix(0.0350392 0.0350392 -0.0586894 0.0586894 6130.82 8603.53)" width="321.91" height="1249.23"/>
      </g>
      <g>
       <rect class="fil5" transform="matrix(0.0551679 0.0551679 -0.0381941 0.0381941 6255.45 8501.14)" width="1328.97" height="295.32"/>
       <rect class="fil5" transform="matrix(0.0350392 0.0350392 -0.0586894 0.0586894 6255.45 8501.14)" width="321.91" height="1249.23"/>
      </g>
      <g>
       <rect class="fil5" transform="matrix(0.0551679 0.0551679 -0.0381941 0.0381941 6130.82 8501.74)" width="1328.97" height="295.32"/>
       <rect class="fil5" transform="matrix(0.0350392 0.0350392 -0.0586894 0.0586894 6130.82 8501.74)" width="321.91" height="1249.23"/>
      </g>
     </g>
     <g>
      <g>
       <rect class="fil5" transform="matrix(0.0551679 0.0551679 -0.0381941 0.0381941 6505.78 8602.93)" width="1328.97" height="295.32"/>
       <rect class="fil5" transform="matrix(0.0350392 0.0350392 -0.0586894 0.0586894 6505.78 8602.93)" width="321.91" height="1249.23"/>
      </g>
      <g>
       <rect class="fil5" transform="matrix(0.0551679 0.0551679 -0.0381941 0.0381941 6381.15 8603.53)" width="1328.97" height="295.32"/>
       <rect class="fil5" transform="matrix(0.0350392 0.0350392 -0.0586894 0.0586894 6381.15 8603.53)" width="321.91" height="1249.23"/>
      </g>
      <g>
       <rect class="fil5" transform="matrix(0.0551679 0.0551679 -0.0381941 0.0381941 6505.78 8501.14)" width="1328.97" height="295.32"/>
       <rect class="fil5" transform="matrix(0.0350392 0.0350392 -0.0586894 0.0586894 6505.78 8501.14)" width="321.91" height="1249.23"/>
      </g>
      <g>
       <rect class="fil5" transform="matrix(0.0551679 0.0551679 -0.0381941 0.0381941 6381.15 8501.74)" width="1328.97" height="295.32"/>
       <rect class="fil5" transform="matrix(0.0350392 0.0350392 -0.0586894 0.0586894 6381.15 8501.74)" width="321.91" height="1249.23"/>
      </g>
     </g>
    </g>
   </g>
   <g>
    <g>
     <g>
      <rect class="fil5" transform="matrix(0.0551679 0.0551679 -0.0381941 0.0381941 5755.45 8602.93)" width="1328.97" height="295.32"/>
      <rect class="fil5" transform="matrix(0.0350392 0.0350392 -0.0586894 0.0586894 5755.45 8602.93)" width="321.91" height="1249.23"/>
     </g>
     <g>
      <rect class="fil5" transform="matrix(0.0551679 0.0551679 -0.0381941 0.0381941 5630.82 8603.53)" width="1328.97" height="295.32"/>
      <rect class="fil5" transform="matrix(0.0350392 0.0350392 -0.0586894 0.0586894 5630.82 8603.53)" width="321.91" height="1249.23"/>
     </g>
     <g>
      <rect class="fil5" transform="matrix(0.0551679 0.0551679 -0.0381941 0.0381941 5755.45 8501.14)" width="1328.97" height="295.32"/>
      <rect class="fil5" transform="matrix(0.0350392 0.0350392 -0.0586894 0.0586894 5755.45 8501.14)" width="321.91" height="1249.23"/>
     </g>
     <g>
      <rect class="fil5" transform="matrix(0.0551679 0.0551679 -0.0381941 0.0381941 5630.82 8501.74)" width="1328.97" height="295.32"/>
      <rect class="fil5" transform="matrix(0.0350392 0.0350392 -0.0586894 0.0586894 5630.82 8501.74)" width="321.91" height="1249.23"/>
     </g>
    </g>
    <g>
     <g>
      <rect class="fil5" transform="matrix(0.0551679 0.0551679 -0.0381941 0.0381941 6005.78 8602.93)" width="1328.97" height="295.32"/>
      <rect class="fil5" transform="matrix(0.0350392 0.0350392 -0.0586894 0.0586894 6005.78 8602.93)" width="321.91" height="1249.23"/>
     </g>
     <g>
      <rect class="fil5" transform="matrix(0.0551679 0.0551679 -0.0381941 0.0381941 5881.15 8603.53)" width="1328.97" height="295.32"/>
      <rect class="fil5" transform="matrix(0.0350392 0.0350392 -0.0586894 0.0586894 5881.15 8603.53)" width="321.91" height="1249.23"/>
     </g>
     <g>
      <rect class="fil5" transform="matrix(0.0551679 0.0551679 -0.0381941 0.0381941 6005.78 8501.14)" width="1328.97" height="295.32"/>
      <rect class="fil5" transform="matrix(0.0350392 0.0350392 -0.0586894 0.0586894 6005.78 8501.14)" width="321.91" height="1249.23"/>
     </g>
     <g>
      <rect class="fil5" transform="matrix(0.0551679 0.0551679 -0.0381941 0.0381941 5881.15 8501.74)" width="1328.97" height="295.32"/>
      <rect class="fil5" transform="matrix(0.0350392 0.0350392 -0.0586894 0.0586894 5881.15 8501.74)" width="321.91" height="1249.23"/>
     </g>
    </g>
   </g>
   <g>
    <g>
     <rect class="fil5" transform="matrix(0.0551679 0.0551679 -0.0381941 0.0381941 5755.45 8602.93)" width="1328.97" height="295.32"/>
     <rect class="fil5" transform="matrix(0.0350392 0.0350392 -0.0586894 0.0586894 5755.45 8602.93)" width="321.91" height="1249.23"/>
    </g>
    <g>
     <rect class="fil5" transform="matrix(0.0551679 0.0551679 -0.0381941 0.0381941 5630.82 8603.53)" width="1328.97" height="295.32"/>
     <rect class="fil5" transform="matrix(0.0350392 0.0350392 -0.0586894 0.0586894 5630.82 8603.53)" width="321.91" height="1249.23"/>
    </g>
    <g>
     <rect class="fil5" transform="matrix(0.0551679 0.0551679 -0.0381941 0.0381941 5755.45 8501.14)" width="1328.97" height="295.32"/>
     <rect class="fil5" transform="matrix(0.0350392 0.0350392 -0.0586894 0.0586894 5755.45 8501.14)" width="321.91" height="1249.23"/>
    </g>
    <g>
     <rect class="fil5" transform="matrix(0.0551679 0.0551679 -0.0381941 0.0381941 5630.82 8501.74)" width="1328.97" height="295.32"/>
     <rect class="fil5" transform="matrix(0.0350392 0.0350392 -0.0586894 0.0586894 5630.82 8501.74)" width="321.91" height="1249.23"/>
    </g>
   </g>
   <g>
    <g>
     <rect class="fil5" transform="matrix(0.0551679 0.0551679 -0.0381941 0.0381941 6005.78 8602.93)" width="1328.97" height="295.32"/>
     <rect class="fil5" transform="matrix(0.0350392 0.0350392 -0.0586894 0.0586894 6005.78 8602.93)" width="321.91" height="1249.23"/>
    </g>
    <g>
     <rect class="fil5" transform="matrix(0.0551679 0.0551679 -0.0381941 0.0381941 5881.15 8603.53)" width="1328.97" height="295.32"/>
     <rect class="fil5" transform="matrix(0.0350392 0.0350392 -0.0586894 0.0586894 5881.15 8603.53)" width="321.91" height="1249.23"/>
    </g>
    <g>
     <rect class="fil5" transform="matrix(0.0551679 0.0551679 -0.0381941 0.0381941 6005.78 8501.14)" width="1328.97" height="295.32"/>
     <rect class="fil5" transform="matrix(0.0350392 0.0350392 -0.0586894 0.0586894 6005.78 8501.14)" width="321.91" height="1249.23"/>
    </g>
    <g>
     <rect class="fil5" transform="matrix(0.0551679 0.0551679 -0.0381941 0.0381941 5881.15 8501.74)" width="1328.97" height="295.32"/>
     <rect class="fil5" transform="matrix(0.0350392 0.0350392 -0.0586894 0.0586894 5881.15 8501.74)" width="321.91" height="1249.23"/>
    </g>
   </g>
  </g>
 </g>
</svg>
