<?xml version="1.0" encoding="UTF-8"?>
<!DOCTYPE svg PUBLIC "-//W3C//DTD SVG 1.1//EN" "http://www.w3.org/Graphics/SVG/1.1/DTD/svg11.dtd">
<!-- Creator: CorelDRAW 2021 (64-Bit) -->
<svg xmlns="http://www.w3.org/2000/svg" xml:space="preserve" width="160mm" height="95mm" version="1.1" style="shape-rendering:geometricPrecision; text-rendering:geometricPrecision; image-rendering:optimizeQuality; fill-rule:evenodd; clip-rule:evenodd"
viewBox="0 0 16000 9500"
 xmlns:xlink="http://www.w3.org/1999/xlink"
 xmlns:xodm="http://www.corel.com/coreldraw/odm/2003">
 <defs>
  <style type="text/css">
   <![CDATA[
    .fil3 {fill:#FEFEFE}
    .fil0 {fill:#B2B3B3}
    .fil4 {fill:#9D9E9E}
    .fil1 {fill:#EF7F1A}
    .fil2 {fill:#9D9E9E;fill-rule:nonzero}
   ]]>
  </style>
 </defs>
 <g id="Layer_x0020_1">
  <metadata id="CorelCorpID_0Corel-Layer"/>
  <rect class="fil0" x="-7.55" y="2.02" width="16011.12" height="9506.6"/>
  <rect class="fil1" x="-7.57" y="8499.26" width="4315.52" height="221.72"/>
  <path class="fil2" d="M11165.98 8517.56l980.95 0 0 145.21 -84.67 8.84 -896.28 0 0 -154.05zm614.9 638.81c-65.72,0 -120.87,-9.05 -165.47,-27.14 -44.6,-18.1 -80.79,-41.37 -108.59,-70.03 -27.79,-28.65 -47.61,-60.32 -59.89,-95.44 -12.28,-34.9 -18.32,-69.16 -18.32,-102.77 0,-26.07 3.02,-50.85 8.84,-74.55 5.81,-23.48 14.22,-44.6 25.21,-63.13l133.79 0c-15.08,14.44 -27.36,30.38 -36.63,48.05 -9.26,17.67 -13.78,37.49 -13.78,59.25 0,26.07 6.46,49.34 19.6,69.59 12.93,20.04 30.81,37.06 53.65,51.06 22.62,13.79 48.69,24.56 78.21,32.1 29.51,7.55 60.97,11.42 94.58,11.42 33.83,0 65.07,-4.31 94.15,-12.71 29.09,-8.4 54.51,-19.6 76.49,-34.04 21.76,-14.22 39,-31.67 51.71,-52.35 12.49,-20.69 18.96,-43.09 18.96,-67.44 0,-41.37 -16.59,-76.27 -49.34,-104.93l131.21 0c10.99,20.26 20.04,43.53 27.15,70.03 7.32,26.5 10.77,54.51 10.77,84.02 0,33.61 -6.03,66.79 -18.32,99.11 -12.06,32.32 -32.1,61.19 -59.89,86.4 -36.2,32.1 -81.01,55.58 -134.44,70.88 -53.43,15.08 -106.65,22.62 -159.65,22.62z"/>
  <path id="_1" class="fil2" d="M11932.34 8178c37.92,0 66.14,-7.75 84.46,-23.48 18.53,-15.51 29.51,-37.92 32.96,-67.44l102.13 0c0.86,3.45 1.29,8.84 1.29,16.38 0,28.65 -3.66,56.23 -11.21,82.73 -7.75,26.5 -19.82,49.77 -36.62,70.02 -17.02,20.25 -39.21,35.98 -67.01,47.4 -27.79,11.42 -61.83,17.02 -102.34,17.02 -38.56,0 -72.17,-8.19 -100.18,-24.56 -28.23,-16.37 -51.5,-37.49 -69.59,-63.13 -18.1,-25.64 -31.46,-54.94 -40.29,-87.9 -8.84,-32.75 -13.36,-65.93 -13.36,-99.54l0 -55.59 89.63 0 0 27.8c0,16.8 1.72,34.47 5.17,53 3.23,18.53 9.69,35.76 18.96,51.71 9.26,15.94 22.4,29.3 39.64,39.86 17.24,10.34 39.43,15.72 66.36,15.72zm3.66 -392.55c6.9,0 16.81,-0.43 29.74,-1.29 13.14,-0.86 26.28,-2.59 39.85,-5.17 13.36,-2.37 25.64,-6.47 36.63,-11.85 10.77,-5.6 18.1,-12.93 21.33,-22.19l84.67 40.5c0,10.77 -2.58,22.41 -7.54,34.69 -5.17,12.06 -12.28,23.91 -21.54,35.33 -9.27,11.42 -19.61,20.9 -30.81,29.09 -11.42,7.97 -23.92,14 -37.28,18.31 20.9,8.4 39.65,24.99 56.02,49.77 16.59,24.78 28.44,52.36 35.98,82.73l-95.87 0c-4.1,-20.25 -12.5,-38.56 -24.57,-54.94 -12.28,-16.37 -26.71,-30.59 -43.52,-42.22l-266.51 0c-41.15,0 -73.9,1.93 -98.46,6.24 -24.35,4.1 -42.23,11.42 -53.65,21.33 -11.2,10.13 -18.53,22.63 -21.33,37.28 -3.02,14.86 -4.52,32.31 -4.52,52.35 0,18.53 2.37,35.98 6.89,52.57 4.74,16.38 10.13,31.46 16.59,45.46 6.25,13.79 13.14,26.07 20.68,36.63 7.54,10.34 13.58,18.1 17.67,23.27l-87.04 56.88c-9.27,-8.62 -18.75,-21.12 -28.44,-37.92 -9.7,-16.81 -18.31,-36.2 -25.86,-58.18 -7.54,-21.76 -13.57,-45.67 -18.31,-71.31 -4.52,-25.64 -6.89,-52.35 -6.89,-80.15 0,-25.21 2.58,-49.77 7.54,-73.9 4.95,-23.91 13.57,-45.89 25.21,-65.49 11.85,-19.83 27.57,-37.06 47.39,-51.93 19.83,-14.65 44.39,-24.99 73.9,-30.81 29.31,-5.82 59.04,-9.91 88.99,-12.06 29.73,-2.16 59.46,-3.02 88.98,-3.02l164.17 0 9.91 0zm-770.02 127.12l179.25 137.67 0 100.83 -179.25 -84.46 0 -154.04z"/>
  <polygon id="_2" class="fil2" points="11713.87,7142.76 11841.42,7142.76 11841.42,7544.14 11713.87,7544.14 "/>
  <path id="_3" class="fil2" d="M11929.75 6775.41c28.66,0 51.07,-3.88 67.66,-11.42 16.37,-7.54 28.44,-18.1 36.62,-31.46 7.98,-13.57 13.15,-28.87 15.73,-46.1 2.59,-17.24 3.66,-35.98 3.66,-56.23l93.51 0c1.72,10.98 3.02,22.4 3.88,34.04 0.64,9.26 1.29,20.25 1.72,32.96 0.43,12.5 0.65,25.21 0.65,37.7 0,12.72 -0.43,25.43 -1.29,37.92 -0.87,12.72 -1.94,24.14 -3.67,34.05 -5.81,28.65 -18.53,51.06 -37.92,67 -19.39,15.94 -40.93,28.23 -65.06,36.63 -23.92,8.4 -47.19,13.57 -70.02,15.73 -22.63,2.15 -40.29,3.23 -53.01,3.23l-15.08 0 -741.15 0 0 -154.05 763.77 0z"/>
  <path id="_4" class="fil2" d="M11165.98 6468.6l0 -152.75 980.95 0 0 152.75 -980.95 0zm347.31 -530.22c14.22,-14.22 30.81,-25.43 49.77,-33.4 18.96,-7.97 38.78,-14 59.25,-17.67 20.68,-3.87 41.58,-6.24 62.48,-6.89 21.11,-0.86 41.79,-1.29 62.05,-1.29l374.88 0 25.21 0 0 154.04 -387.6 0c-28.65,0 -56.01,1.08 -82.08,3.67 -26.07,2.58 -49.13,8.4 -69.38,17.66 -20.25,9.27 -35.98,21.98 -47.4,37.92 -11.2,15.95 -17.02,38.35 -17.02,66.79 0,11.85 1.94,27.58 5.82,47.4 3.66,19.82 9.69,39 18.1,57.53l-97.17 0c-11.64,-22.84 -21.76,-47.4 -30.17,-73.9 -8.4,-26.5 -12.71,-52.36 -12.71,-77.56 0,-37.92 7.76,-70.03 23.49,-96.1 15.51,-26.06 36.19,-52.13 62.48,-78.2z"/>
  <path id="_5" class="fil2" d="M11428.61 5369.15c4.31,-45.46 16.38,-86.39 36.63,-123.02 20.25,-36.63 46.32,-68.08 78.21,-94.15 32.1,-26.07 68.73,-46.11 109.88,-59.9 41.15,-14 84.24,-20.9 128.84,-20.9 20.04,0 40.29,1.3 60.54,3.88l0 432.84 -111.17 0 0 -291.5c-21.76,0 -42.88,3.66 -63.13,10.77 -20.04,7.11 -38.78,17.67 -56.02,31.46 -17.45,14 -31.88,30.16 -43.73,48.69 -11.64,18.53 -18.75,39 -21.33,61.83l-118.72 0zm599.61 4.96c0,-9.26 -1.08,-20.68 -3.02,-34.69 -2.15,-13.79 -6.03,-28.65 -11.42,-44.17 -5.6,-15.51 -12.5,-31.02 -20.9,-46.75 -8.4,-15.51 -18.53,-29.08 -30.16,-40.93l84.46 -55.59c34.47,27.79 60.54,60.11 78.2,97.17 17.67,37.06 26.51,84.24 26.51,141.33 0,46.33 -9.48,89.85 -28.23,130.14 -18.96,40.5 -44.81,74.97 -77.78,103.63 -32.75,28.44 -71.1,51.28 -114.83,68.08 -43.74,16.81 -90.92,25.21 -141.34,25.21 -48.04,0 -93.5,-7.76 -136.38,-23.27 -42.87,-15.73 -80.58,-36.84 -112.9,-63.77 -32.53,-26.93 -58.81,-58.39 -79.07,-94.16 -20.03,-35.76 -31.45,-74.11 -34.04,-115.48l121.3 0c5.82,31.24 18.53,56.88 37.7,77.13 19.4,20.04 41.59,35.98 66.36,47.19 24.78,11.42 50.2,19.39 76.49,24.13 26.07,4.52 48.26,6.89 66.79,6.89 32.75,0 63.34,-4.09 91.57,-12.06 28.22,-7.97 52.57,-20.47 73.25,-37.28 20.47,-16.8 37.06,-37.48 49.12,-62.48 12.28,-24.77 18.32,-54.94 18.32,-90.27z"/>
  <path id="_6" class="fil2" d="M11931.05 4312.58c28.65,0 50.84,-3.88 67,-11.42 15.95,-7.54 28.01,-18.31 36.41,-32.1 8.62,-14 13.79,-29.52 15.95,-46.75 2.15,-17.24 3.01,-35.55 3.01,-54.94l93.51 0c1.72,10.99 3.02,21.76 3.88,32.75 0.64,9.26 1.29,20.46 1.72,33.39 0.43,13.14 0.65,26.07 0.65,38.57 0,12.71 -0.43,25.42 -1.29,38.56 -0.87,12.93 -1.94,24.13 -3.67,33.4 -5.17,28.65 -17.45,51.06 -37.27,67 -19.82,15.95 -41.58,28.01 -65.71,35.98 -23.92,7.97 -47.19,12.93 -70.02,15.08 -22.63,2.16 -40.29,3.24 -53.01,3.24l-383.72 0 0 93.29 -103.63 0 0 -93.29 -201.88 0 0 -152.76 201.88 0 0 -113.76 103.63 0 0 113.76 392.56 0z"/>
  <path id="_7" class="fil2" d="M12146.93 3835.36l0 154.05 -712.07 0 0 -154.05 712.07 0zm-939.15 -13.79c25.2,0 46.32,8.83 63.77,26.5 17.24,17.67 25.85,39 25.85,64.42 0,25.21 -8.83,46.32 -26.5,63.56 -17.66,17.23 -38.78,25.85 -63.12,25.85 -25.43,0 -46.76,-8.83 -64.42,-26.5 -17.67,-17.67 -26.5,-38.57 -26.5,-62.91 0,-25.42 8.83,-46.75 26.5,-64.42 17.66,-17.67 38.99,-26.5 64.42,-26.5z"/>
  <path id="_8" class="fil2" d="M11619.29 3147.42c-15.3,12.49 -29.3,29.94 -42.45,52.35 -12.92,22.19 -20.68,51.92 -23.26,88.98l-121.09 0c2.37,-46.32 12.28,-85.96 29.52,-119.36 17.24,-33.18 42.44,-63.34 75.19,-90.27l82.09 68.3zm407.63 141.33c-3.23,-30.38 -10.55,-56.23 -21.97,-77.56 -11.42,-21.55 -24.56,-42.01 -39.86,-61.4l82.09 -56.67c32.74,26.07 57.95,54.3 75.19,84.46 17.23,30.38 27.15,67.43 29.52,111.17l-124.97 0zm-235.92 352.26c-48.04,0 -93.07,-6.89 -135.08,-20.89 -42.23,-13.79 -79.29,-34.26 -111.18,-61.19 -31.88,-26.93 -57.95,-58.82 -77.56,-95.23 -19.82,-36.63 -31.46,-77.78 -34.69,-123.24l122.38 0c9.26,42.23 35.12,75.84 77.56,101.05 42.66,25.2 94.15,37.92 154.7,37.92 31.24,0 60.32,-3.24 87.68,-9.48 27.37,-6.25 51.71,-15.3 72.61,-27.15 21.12,-11.85 38.78,-26.29 53,-43.52 14.44,-17.24 23.27,-36.84 26.5,-58.82l124.97 0c-2.37,46.32 -13.58,87.9 -33.4,124.96 -19.82,37.06 -45.89,68.73 -78.21,94.8 -32.53,26.07 -70.02,46.11 -113.11,59.9 -42.88,14 -88.34,20.89 -136.17,20.89z"/>
  <path id="_9" class="fil2" d="M11789.71 2584.44l357.22 -282.88 0 174.3 -272.76 207.05 -175.38 0 -263.93 -176.67 0 -171.72 354.85 249.92zm357.22 304.22l-980.95 0 0 -154.05 980.95 0 0 154.05z"/>
  <path id="_10" class="fil2" d="M11428.61 1815.71c4.31,-45.46 16.38,-86.39 36.63,-123.02 20.25,-36.63 46.32,-68.08 78.21,-94.15 32.1,-26.07 68.73,-46.11 109.88,-59.9 41.15,-14 84.24,-20.9 128.84,-20.9 20.04,0 40.29,1.3 60.54,3.88l0 432.84 -111.17 0 0 -291.5c-21.76,0 -42.88,3.66 -63.13,10.77 -20.04,7.11 -38.78,17.67 -56.02,31.46 -17.45,14 -31.88,30.16 -43.73,48.69 -11.64,18.53 -18.75,39 -21.33,61.83l-118.72 0zm599.61 4.96c0,-9.26 -1.08,-20.68 -3.02,-34.69 -2.15,-13.79 -6.03,-28.65 -11.42,-44.17 -5.6,-15.51 -12.5,-31.02 -20.9,-46.75 -8.4,-15.51 -18.53,-29.08 -30.16,-40.93l84.46 -55.59c34.47,27.79 60.54,60.11 78.2,97.17 17.67,37.06 26.51,84.24 26.51,141.33 0,46.33 -9.48,89.85 -28.23,130.14 -18.96,40.5 -44.81,74.97 -77.78,103.63 -32.75,28.44 -71.1,51.28 -114.83,68.08 -43.74,16.81 -90.92,25.21 -141.34,25.21 -48.04,0 -93.5,-7.76 -136.38,-23.27 -42.87,-15.73 -80.58,-36.84 -112.9,-63.77 -32.53,-26.93 -58.81,-58.39 -79.07,-94.16 -20.03,-35.76 -31.45,-74.11 -34.04,-115.48l121.3 0c5.82,31.24 18.53,56.88 37.7,77.13 19.4,20.04 41.59,35.98 66.36,47.19 24.78,11.42 50.2,19.39 76.49,24.13 26.07,4.52 48.26,6.89 66.79,6.89 32.75,0 63.34,-4.09 91.57,-12.06 28.22,-7.97 52.57,-20.47 73.25,-37.28 20.47,-16.8 37.06,-37.48 49.12,-62.48 12.28,-24.77 18.32,-54.94 18.32,-90.27z"/>
  <path id="_11" class="fil2" d="M11931.05 1104.94c28.65,0 50.84,-3.88 67,-11.42 15.95,-7.54 28.01,-18.31 36.41,-32.1 8.62,-14 13.79,-29.52 15.95,-46.75 2.15,-17.24 3.01,-35.55 3.01,-54.94l93.51 0c1.72,10.99 3.02,21.76 3.88,32.75 0.64,9.26 1.29,20.46 1.72,33.39 0.43,13.14 0.65,26.07 0.65,38.57 0,12.71 -0.43,25.42 -1.29,38.56 -0.87,12.93 -1.94,24.13 -3.67,33.4 -5.17,28.65 -17.45,51.06 -37.27,67 -19.82,15.95 -41.58,28.01 -65.71,35.98 -23.92,7.97 -47.19,12.93 -70.02,15.08 -22.63,2.16 -40.29,3.24 -53.01,3.24l-383.72 0 0 93.29 -103.63 0 0 -93.29 -201.88 0 0 -152.76 201.88 0 0 -113.76 103.63 0 0 113.76 392.56 0z"/>
  <g id="_2962499283712">
   <g>
    <rect class="fil3" transform="matrix(-0.135493 0.135493 -0.0938052 -0.0938052 852.231 3839.1)" width="1328.97" height="295.32"/>
    <rect class="fil3" transform="matrix(-0.0860568 0.0860568 -0.144142 -0.144142 852.23 3839.1)" width="321.91" height="1249.23"/>
   </g>
   <g>
    <rect class="fil3" transform="matrix(-0.135493 0.135493 -0.0938052 -0.0938052 850.752 3533)" width="1328.97" height="295.32"/>
    <rect class="fil3" transform="matrix(-0.0860568 0.0860568 -0.144142 -0.144142 850.751 3533)" width="321.91" height="1249.23"/>
   </g>
   <g>
    <rect class="fil3" transform="matrix(-0.135493 0.135493 -0.0938052 -0.0938052 1102.23 3839.1)" width="1328.97" height="295.32"/>
    <rect class="fil3" transform="matrix(-0.0860568 0.0860568 -0.144142 -0.144142 1102.23 3839.1)" width="321.91" height="1249.23"/>
   </g>
   <g>
    <rect class="fil3" transform="matrix(-0.135493 0.135493 -0.0938052 -0.0938052 1100.75 3533)" width="1328.97" height="295.32"/>
    <rect class="fil3" transform="matrix(-0.0860568 0.0860568 -0.144142 -0.144142 1100.75 3533)" width="321.91" height="1249.23"/>
   </g>
  </g>
  <g id="_2962499331232">
   <g>
    <rect class="fil3" transform="matrix(-0.16257 0.16257 -0.112551 -0.112551 12699.4 1543.59)" width="1328.97" height="295.32"/>
    <rect class="fil3" transform="matrix(-0.103254 0.103254 -0.172948 -0.172948 12699.4 1543.59)" width="321.91" height="1249.23"/>
   </g>
   <g>
    <rect class="fil3" transform="matrix(-0.16257 0.16257 -0.112551 -0.112551 12697.6 1176.32)" width="1328.97" height="295.32"/>
    <rect class="fil3" transform="matrix(-0.103254 0.103254 -0.172948 -0.172948 12697.6 1176.32)" width="321.91" height="1249.23"/>
   </g>
   <g>
    <rect class="fil3" transform="matrix(-0.16257 0.16257 -0.112551 -0.112551 12999.3 1543.59)" width="1328.97" height="295.32"/>
    <rect class="fil3" transform="matrix(-0.103254 0.103254 -0.172948 -0.172948 12999.3 1543.59)" width="321.91" height="1249.23"/>
   </g>
   <g>
    <rect class="fil3" transform="matrix(-0.16257 0.16257 -0.112551 -0.112551 12997.6 1176.32)" width="1328.97" height="295.32"/>
    <rect class="fil3" transform="matrix(-0.103254 0.103254 -0.172948 -0.172948 12997.6 1176.32)" width="321.91" height="1249.23"/>
   </g>
  </g>
  <g id="_2962499312944">
   <g>
    <rect class="fil3" transform="matrix(-0.16257 0.16257 -0.112551 -0.112551 12699.4 1543.59)" width="1328.97" height="295.32"/>
    <rect class="fil3" transform="matrix(-0.103254 0.103254 -0.172948 -0.172948 12699.4 1543.59)" width="321.91" height="1249.23"/>
   </g>
   <g>
    <rect class="fil3" transform="matrix(-0.16257 0.16257 -0.112551 -0.112551 12697.6 1176.32)" width="1328.97" height="295.32"/>
    <rect class="fil3" transform="matrix(-0.103254 0.103254 -0.172948 -0.172948 12697.6 1176.32)" width="321.91" height="1249.23"/>
   </g>
   <g>
    <rect class="fil3" transform="matrix(-0.16257 0.16257 -0.112551 -0.112551 12999.3 1543.59)" width="1328.97" height="295.32"/>
    <rect class="fil3" transform="matrix(-0.103254 0.103254 -0.172948 -0.172948 12999.3 1543.59)" width="321.91" height="1249.23"/>
   </g>
   <g>
    <rect class="fil3" transform="matrix(-0.16257 0.16257 -0.112551 -0.112551 12997.6 1176.32)" width="1328.97" height="295.32"/>
    <rect class="fil3" transform="matrix(-0.103254 0.103254 -0.172948 -0.172948 12997.6 1176.32)" width="321.91" height="1249.23"/>
   </g>
  </g>
  <g id="_2962534886384">
   <g>
    <g>
     <g>
      <g>
       <g>
        <rect class="fil4" transform="matrix(0.0551679 0.0551679 -0.0381941 0.0381941 10755.4 8602.93)" width="1328.97" height="295.32"/>
        <rect class="fil4" transform="matrix(0.0350392 0.0350392 -0.0586894 0.0586894 10755.4 8602.93)" width="321.91" height="1249.23"/>
       </g>
       <g>
        <rect class="fil4" transform="matrix(0.0551679 0.0551679 -0.0381941 0.0381941 10630.8 8603.53)" width="1328.97" height="295.32"/>
        <rect class="fil4" transform="matrix(0.0350392 0.0350392 -0.0586894 0.0586894 10630.8 8603.53)" width="321.91" height="1249.23"/>
       </g>
       <g>
        <rect class="fil4" transform="matrix(0.0551679 0.0551679 -0.0381941 0.0381941 10755.4 8501.14)" width="1328.97" height="295.32"/>
        <rect class="fil4" transform="matrix(0.0350392 0.0350392 -0.0586894 0.0586894 10755.4 8501.14)" width="321.91" height="1249.23"/>
       </g>
       <g>
        <rect class="fil4" transform="matrix(0.0551679 0.0551679 -0.0381941 0.0381941 10630.8 8501.74)" width="1328.97" height="295.32"/>
        <rect class="fil4" transform="matrix(0.0350392 0.0350392 -0.0586894 0.0586894 10630.8 8501.74)" width="321.91" height="1249.23"/>
       </g>
      </g>
      <g>
       <g>
        <rect class="fil4" transform="matrix(0.0551679 0.0551679 -0.0381941 0.0381941 11005.8 8602.93)" width="1328.97" height="295.32"/>
        <rect class="fil4" transform="matrix(0.0350392 0.0350392 -0.0586894 0.0586894 11005.8 8602.93)" width="321.91" height="1249.23"/>
       </g>
       <g>
        <rect class="fil4" transform="matrix(0.0551679 0.0551679 -0.0381941 0.0381941 10881.1 8603.53)" width="1328.97" height="295.32"/>
        <rect class="fil4" transform="matrix(0.0350392 0.0350392 -0.0586894 0.0586894 10881.1 8603.53)" width="321.91" height="1249.23"/>
       </g>
       <g>
        <rect class="fil4" transform="matrix(0.0551679 0.0551679 -0.0381941 0.0381941 11005.8 8501.14)" width="1328.97" height="295.32"/>
        <rect class="fil4" transform="matrix(0.0350392 0.0350392 -0.0586894 0.0586894 11005.8 8501.14)" width="321.91" height="1249.23"/>
       </g>
       <g>
        <rect class="fil4" transform="matrix(0.0551679 0.0551679 -0.0381941 0.0381941 10881.1 8501.74)" width="1328.97" height="295.32"/>
        <rect class="fil4" transform="matrix(0.0350392 0.0350392 -0.0586894 0.0586894 10881.1 8501.74)" width="321.91" height="1249.23"/>
       </g>
      </g>
     </g>
     <g>
      <g>
       <g>
        <rect class="fil4" transform="matrix(0.0551679 0.0551679 -0.0381941 0.0381941 10755.4 8602.93)" width="1328.97" height="295.32"/>
        <rect class="fil4" transform="matrix(0.0350392 0.0350392 -0.0586894 0.0586894 10755.4 8602.93)" width="321.91" height="1249.23"/>
       </g>
       <g>
        <rect class="fil4" transform="matrix(0.0551679 0.0551679 -0.0381941 0.0381941 10630.8 8603.53)" width="1328.97" height="295.32"/>
        <rect class="fil4" transform="matrix(0.0350392 0.0350392 -0.0586894 0.0586894 10630.8 8603.53)" width="321.91" height="1249.23"/>
       </g>
       <g>
        <rect class="fil4" transform="matrix(0.0551679 0.0551679 -0.0381941 0.0381941 10755.4 8501.14)" width="1328.97" height="295.32"/>
        <rect class="fil4" transform="matrix(0.0350392 0.0350392 -0.0586894 0.0586894 10755.4 8501.14)" width="321.91" height="1249.23"/>
       </g>
       <g>
        <rect class="fil4" transform="matrix(0.0551679 0.0551679 -0.0381941 0.0381941 10630.8 8501.74)" width="1328.97" height="295.32"/>
        <rect class="fil4" transform="matrix(0.0350392 0.0350392 -0.0586894 0.0586894 10630.8 8501.74)" width="321.91" height="1249.23"/>
       </g>
      </g>
      <g>
       <g>
        <rect class="fil4" transform="matrix(0.0551679 0.0551679 -0.0381941 0.0381941 11005.8 8602.93)" width="1328.97" height="295.32"/>
        <rect class="fil4" transform="matrix(0.0350392 0.0350392 -0.0586894 0.0586894 11005.8 8602.93)" width="321.91" height="1249.23"/>
       </g>
       <g>
        <rect class="fil4" transform="matrix(0.0551679 0.0551679 -0.0381941 0.0381941 10881.1 8603.53)" width="1328.97" height="295.32"/>
        <rect class="fil4" transform="matrix(0.0350392 0.0350392 -0.0586894 0.0586894 10881.1 8603.53)" width="321.91" height="1249.23"/>
       </g>
       <g>
        <rect class="fil4" transform="matrix(0.0551679 0.0551679 -0.0381941 0.0381941 11005.8 8501.14)" width="1328.97" height="295.32"/>
        <rect class="fil4" transform="matrix(0.0350392 0.0350392 -0.0586894 0.0586894 11005.8 8501.14)" width="321.91" height="1249.23"/>
       </g>
       <g>
        <rect class="fil4" transform="matrix(0.0551679 0.0551679 -0.0381941 0.0381941 10881.1 8501.74)" width="1328.97" height="295.32"/>
        <rect class="fil4" transform="matrix(0.0350392 0.0350392 -0.0586894 0.0586894 10881.1 8501.74)" width="321.91" height="1249.23"/>
       </g>
      </g>
     </g>
     <g>
      <g>
       <g>
        <rect class="fil4" transform="matrix(0.0551679 0.0551679 -0.0381941 0.0381941 10255.4 8602.93)" width="1328.97" height="295.32"/>
        <rect class="fil4" transform="matrix(0.0350392 0.0350392 -0.0586894 0.0586894 10255.4 8602.93)" width="321.91" height="1249.23"/>
       </g>
       <g>
        <rect class="fil4" transform="matrix(0.0551679 0.0551679 -0.0381941 0.0381941 10130.8 8603.53)" width="1328.97" height="295.32"/>
        <rect class="fil4" transform="matrix(0.0350392 0.0350392 -0.0586894 0.0586894 10130.8 8603.53)" width="321.91" height="1249.23"/>
       </g>
       <g>
        <rect class="fil4" transform="matrix(0.0551679 0.0551679 -0.0381941 0.0381941 10255.4 8501.14)" width="1328.97" height="295.32"/>
        <rect class="fil4" transform="matrix(0.0350392 0.0350392 -0.0586894 0.0586894 10255.4 8501.14)" width="321.91" height="1249.23"/>
       </g>
       <g>
        <rect class="fil4" transform="matrix(0.0551679 0.0551679 -0.0381941 0.0381941 10130.8 8501.74)" width="1328.97" height="295.32"/>
        <rect class="fil4" transform="matrix(0.0350392 0.0350392 -0.0586894 0.0586894 10130.8 8501.74)" width="321.91" height="1249.23"/>
       </g>
      </g>
      <g>
       <g>
        <rect class="fil4" transform="matrix(0.0551679 0.0551679 -0.0381941 0.0381941 10505.8 8602.93)" width="1328.97" height="295.32"/>
        <rect class="fil4" transform="matrix(0.0350392 0.0350392 -0.0586894 0.0586894 10505.8 8602.93)" width="321.91" height="1249.23"/>
       </g>
       <g>
        <rect class="fil4" transform="matrix(0.0551679 0.0551679 -0.0381941 0.0381941 10381.1 8603.53)" width="1328.97" height="295.32"/>
        <rect class="fil4" transform="matrix(0.0350392 0.0350392 -0.0586894 0.0586894 10381.1 8603.53)" width="321.91" height="1249.23"/>
       </g>
       <g>
        <rect class="fil4" transform="matrix(0.0551679 0.0551679 -0.0381941 0.0381941 10505.8 8501.14)" width="1328.97" height="295.32"/>
        <rect class="fil4" transform="matrix(0.0350392 0.0350392 -0.0586894 0.0586894 10505.8 8501.14)" width="321.91" height="1249.23"/>
       </g>
       <g>
        <rect class="fil4" transform="matrix(0.0551679 0.0551679 -0.0381941 0.0381941 10381.1 8501.74)" width="1328.97" height="295.32"/>
        <rect class="fil4" transform="matrix(0.0350392 0.0350392 -0.0586894 0.0586894 10381.1 8501.74)" width="321.91" height="1249.23"/>
       </g>
      </g>
     </g>
     <g>
      <g>
       <g>
        <rect class="fil4" transform="matrix(0.0551679 0.0551679 -0.0381941 0.0381941 10255.4 8602.93)" width="1328.97" height="295.32"/>
        <rect class="fil4" transform="matrix(0.0350392 0.0350392 -0.0586894 0.0586894 10255.4 8602.93)" width="321.91" height="1249.23"/>
       </g>
       <g>
        <rect class="fil4" transform="matrix(0.0551679 0.0551679 -0.0381941 0.0381941 10130.8 8603.53)" width="1328.97" height="295.32"/>
        <rect class="fil4" transform="matrix(0.0350392 0.0350392 -0.0586894 0.0586894 10130.8 8603.53)" width="321.91" height="1249.23"/>
       </g>
       <g>
        <rect class="fil4" transform="matrix(0.0551679 0.0551679 -0.0381941 0.0381941 10255.4 8501.14)" width="1328.97" height="295.32"/>
        <rect class="fil4" transform="matrix(0.0350392 0.0350392 -0.0586894 0.0586894 10255.4 8501.14)" width="321.91" height="1249.23"/>
       </g>
       <g>
        <rect class="fil4" transform="matrix(0.0551679 0.0551679 -0.0381941 0.0381941 10130.8 8501.74)" width="1328.97" height="295.32"/>
        <rect class="fil4" transform="matrix(0.0350392 0.0350392 -0.0586894 0.0586894 10130.8 8501.74)" width="321.91" height="1249.23"/>
       </g>
      </g>
      <g>
       <g>
        <rect class="fil4" transform="matrix(0.0551679 0.0551679 -0.0381941 0.0381941 10505.8 8602.93)" width="1328.97" height="295.32"/>
        <rect class="fil4" transform="matrix(0.0350392 0.0350392 -0.0586894 0.0586894 10505.8 8602.93)" width="321.91" height="1249.23"/>
       </g>
       <g>
        <rect class="fil4" transform="matrix(0.0551679 0.0551679 -0.0381941 0.0381941 10381.1 8603.53)" width="1328.97" height="295.32"/>
        <rect class="fil4" transform="matrix(0.0350392 0.0350392 -0.0586894 0.0586894 10381.1 8603.53)" width="321.91" height="1249.23"/>
       </g>
       <g>
        <rect class="fil4" transform="matrix(0.0551679 0.0551679 -0.0381941 0.0381941 10505.8 8501.14)" width="1328.97" height="295.32"/>
        <rect class="fil4" transform="matrix(0.0350392 0.0350392 -0.0586894 0.0586894 10505.8 8501.14)" width="321.91" height="1249.23"/>
       </g>
       <g>
        <rect class="fil4" transform="matrix(0.0551679 0.0551679 -0.0381941 0.0381941 10381.1 8501.74)" width="1328.97" height="295.32"/>
        <rect class="fil4" transform="matrix(0.0350392 0.0350392 -0.0586894 0.0586894 10381.1 8501.74)" width="321.91" height="1249.23"/>
       </g>
      </g>
     </g>
    </g>
    <g>
     <g>
      <g>
       <g>
        <rect class="fil4" transform="matrix(0.0551679 0.0551679 -0.0381941 0.0381941 9755.45 8602.93)" width="1328.97" height="295.32"/>
        <rect class="fil4" transform="matrix(0.0350392 0.0350392 -0.0586894 0.0586894 9755.45 8602.93)" width="321.91" height="1249.23"/>
       </g>
       <g>
        <rect class="fil4" transform="matrix(0.0551679 0.0551679 -0.0381941 0.0381941 9630.82 8603.53)" width="1328.97" height="295.32"/>
        <rect class="fil4" transform="matrix(0.0350392 0.0350392 -0.0586894 0.0586894 9630.82 8603.53)" width="321.91" height="1249.23"/>
       </g>
       <g>
        <rect class="fil4" transform="matrix(0.0551679 0.0551679 -0.0381941 0.0381941 9755.45 8501.14)" width="1328.97" height="295.32"/>
        <rect class="fil4" transform="matrix(0.0350392 0.0350392 -0.0586894 0.0586894 9755.45 8501.14)" width="321.91" height="1249.23"/>
       </g>
       <g>
        <rect class="fil4" transform="matrix(0.0551679 0.0551679 -0.0381941 0.0381941 9630.82 8501.74)" width="1328.97" height="295.32"/>
        <rect class="fil4" transform="matrix(0.0350392 0.0350392 -0.0586894 0.0586894 9630.82 8501.74)" width="321.91" height="1249.23"/>
       </g>
      </g>
      <g>
       <g>
        <rect class="fil4" transform="matrix(0.0551679 0.0551679 -0.0381941 0.0381941 10005.8 8602.93)" width="1328.97" height="295.32"/>
        <rect class="fil4" transform="matrix(0.0350392 0.0350392 -0.0586894 0.0586894 10005.8 8602.93)" width="321.91" height="1249.23"/>
       </g>
       <g>
        <rect class="fil4" transform="matrix(0.0551679 0.0551679 -0.0381941 0.0381941 9881.15 8603.53)" width="1328.97" height="295.32"/>
        <rect class="fil4" transform="matrix(0.0350392 0.0350392 -0.0586894 0.0586894 9881.15 8603.53)" width="321.91" height="1249.23"/>
       </g>
       <g>
        <rect class="fil4" transform="matrix(0.0551679 0.0551679 -0.0381941 0.0381941 10005.8 8501.14)" width="1328.97" height="295.32"/>
        <rect class="fil4" transform="matrix(0.0350392 0.0350392 -0.0586894 0.0586894 10005.8 8501.14)" width="321.91" height="1249.23"/>
       </g>
       <g>
        <rect class="fil4" transform="matrix(0.0551679 0.0551679 -0.0381941 0.0381941 9881.15 8501.74)" width="1328.97" height="295.32"/>
        <rect class="fil4" transform="matrix(0.0350392 0.0350392 -0.0586894 0.0586894 9881.15 8501.74)" width="321.91" height="1249.23"/>
       </g>
      </g>
     </g>
     <g>
      <g>
       <g>
        <rect class="fil4" transform="matrix(0.0551679 0.0551679 -0.0381941 0.0381941 9755.45 8602.93)" width="1328.97" height="295.32"/>
        <rect class="fil4" transform="matrix(0.0350392 0.0350392 -0.0586894 0.0586894 9755.45 8602.93)" width="321.91" height="1249.23"/>
       </g>
       <g>
        <rect class="fil4" transform="matrix(0.0551679 0.0551679 -0.0381941 0.0381941 9630.82 8603.53)" width="1328.97" height="295.32"/>
        <rect class="fil4" transform="matrix(0.0350392 0.0350392 -0.0586894 0.0586894 9630.82 8603.53)" width="321.91" height="1249.23"/>
       </g>
       <g>
        <rect class="fil4" transform="matrix(0.0551679 0.0551679 -0.0381941 0.0381941 9755.45 8501.14)" width="1328.97" height="295.32"/>
        <rect class="fil4" transform="matrix(0.0350392 0.0350392 -0.0586894 0.0586894 9755.45 8501.14)" width="321.91" height="1249.23"/>
       </g>
       <g>
        <rect class="fil4" transform="matrix(0.0551679 0.0551679 -0.0381941 0.0381941 9630.82 8501.74)" width="1328.97" height="295.32"/>
        <rect class="fil4" transform="matrix(0.0350392 0.0350392 -0.0586894 0.0586894 9630.82 8501.74)" width="321.91" height="1249.23"/>
       </g>
      </g>
      <g>
       <g>
        <rect class="fil4" transform="matrix(0.0551679 0.0551679 -0.0381941 0.0381941 10005.8 8602.93)" width="1328.97" height="295.32"/>
        <rect class="fil4" transform="matrix(0.0350392 0.0350392 -0.0586894 0.0586894 10005.8 8602.93)" width="321.91" height="1249.23"/>
       </g>
       <g>
        <rect class="fil4" transform="matrix(0.0551679 0.0551679 -0.0381941 0.0381941 9881.15 8603.53)" width="1328.97" height="295.32"/>
        <rect class="fil4" transform="matrix(0.0350392 0.0350392 -0.0586894 0.0586894 9881.15 8603.53)" width="321.91" height="1249.23"/>
       </g>
       <g>
        <rect class="fil4" transform="matrix(0.0551679 0.0551679 -0.0381941 0.0381941 10005.8 8501.14)" width="1328.97" height="295.32"/>
        <rect class="fil4" transform="matrix(0.0350392 0.0350392 -0.0586894 0.0586894 10005.8 8501.14)" width="321.91" height="1249.23"/>
       </g>
       <g>
        <rect class="fil4" transform="matrix(0.0551679 0.0551679 -0.0381941 0.0381941 9881.15 8501.74)" width="1328.97" height="295.32"/>
        <rect class="fil4" transform="matrix(0.0350392 0.0350392 -0.0586894 0.0586894 9881.15 8501.74)" width="321.91" height="1249.23"/>
       </g>
      </g>
     </g>
     <g>
      <g>
       <g>
        <rect class="fil4" transform="matrix(0.0551679 0.0551679 -0.0381941 0.0381941 9255.45 8602.93)" width="1328.97" height="295.32"/>
        <rect class="fil4" transform="matrix(0.0350392 0.0350392 -0.0586894 0.0586894 9255.45 8602.93)" width="321.91" height="1249.23"/>
       </g>
       <g>
        <rect class="fil4" transform="matrix(0.0551679 0.0551679 -0.0381941 0.0381941 9130.82 8603.53)" width="1328.97" height="295.32"/>
        <rect class="fil4" transform="matrix(0.0350392 0.0350392 -0.0586894 0.0586894 9130.82 8603.53)" width="321.91" height="1249.23"/>
       </g>
       <g>
        <rect class="fil4" transform="matrix(0.0551679 0.0551679 -0.0381941 0.0381941 9255.45 8501.14)" width="1328.97" height="295.32"/>
        <rect class="fil4" transform="matrix(0.0350392 0.0350392 -0.0586894 0.0586894 9255.45 8501.14)" width="321.91" height="1249.23"/>
       </g>
       <g>
        <rect class="fil4" transform="matrix(0.0551679 0.0551679 -0.0381941 0.0381941 9130.82 8501.74)" width="1328.97" height="295.32"/>
        <rect class="fil4" transform="matrix(0.0350392 0.0350392 -0.0586894 0.0586894 9130.82 8501.74)" width="321.91" height="1249.23"/>
       </g>
      </g>
      <g>
       <g>
        <rect class="fil4" transform="matrix(0.0551679 0.0551679 -0.0381941 0.0381941 9505.78 8602.93)" width="1328.97" height="295.32"/>
        <rect class="fil4" transform="matrix(0.0350392 0.0350392 -0.0586894 0.0586894 9505.78 8602.93)" width="321.91" height="1249.23"/>
       </g>
       <g>
        <rect class="fil4" transform="matrix(0.0551679 0.0551679 -0.0381941 0.0381941 9381.15 8603.53)" width="1328.97" height="295.32"/>
        <rect class="fil4" transform="matrix(0.0350392 0.0350392 -0.0586894 0.0586894 9381.15 8603.53)" width="321.91" height="1249.23"/>
       </g>
       <g>
        <rect class="fil4" transform="matrix(0.0551679 0.0551679 -0.0381941 0.0381941 9505.78 8501.14)" width="1328.97" height="295.32"/>
        <rect class="fil4" transform="matrix(0.0350392 0.0350392 -0.0586894 0.0586894 9505.78 8501.14)" width="321.91" height="1249.23"/>
       </g>
       <g>
        <rect class="fil4" transform="matrix(0.0551679 0.0551679 -0.0381941 0.0381941 9381.15 8501.74)" width="1328.97" height="295.32"/>
        <rect class="fil4" transform="matrix(0.0350392 0.0350392 -0.0586894 0.0586894 9381.15 8501.74)" width="321.91" height="1249.23"/>
       </g>
      </g>
     </g>
     <g>
      <g>
       <g>
        <rect class="fil4" transform="matrix(0.0551679 0.0551679 -0.0381941 0.0381941 9255.45 8602.93)" width="1328.97" height="295.32"/>
        <rect class="fil4" transform="matrix(0.0350392 0.0350392 -0.0586894 0.0586894 9255.45 8602.93)" width="321.91" height="1249.23"/>
       </g>
       <g>
        <rect class="fil4" transform="matrix(0.0551679 0.0551679 -0.0381941 0.0381941 9130.82 8603.53)" width="1328.97" height="295.32"/>
        <rect class="fil4" transform="matrix(0.0350392 0.0350392 -0.0586894 0.0586894 9130.82 8603.53)" width="321.91" height="1249.23"/>
       </g>
       <g>
        <rect class="fil4" transform="matrix(0.0551679 0.0551679 -0.0381941 0.0381941 9255.45 8501.14)" width="1328.97" height="295.32"/>
        <rect class="fil4" transform="matrix(0.0350392 0.0350392 -0.0586894 0.0586894 9255.45 8501.14)" width="321.91" height="1249.23"/>
       </g>
       <g>
        <rect class="fil4" transform="matrix(0.0551679 0.0551679 -0.0381941 0.0381941 9130.82 8501.74)" width="1328.97" height="295.32"/>
        <rect class="fil4" transform="matrix(0.0350392 0.0350392 -0.0586894 0.0586894 9130.82 8501.74)" width="321.91" height="1249.23"/>
       </g>
      </g>
      <g>
       <g>
        <rect class="fil4" transform="matrix(0.0551679 0.0551679 -0.0381941 0.0381941 9505.78 8602.93)" width="1328.97" height="295.32"/>
        <rect class="fil4" transform="matrix(0.0350392 0.0350392 -0.0586894 0.0586894 9505.78 8602.93)" width="321.91" height="1249.23"/>
       </g>
       <g>
        <rect class="fil4" transform="matrix(0.0551679 0.0551679 -0.0381941 0.0381941 9381.15 8603.53)" width="1328.97" height="295.32"/>
        <rect class="fil4" transform="matrix(0.0350392 0.0350392 -0.0586894 0.0586894 9381.15 8603.53)" width="321.91" height="1249.23"/>
       </g>
       <g>
        <rect class="fil4" transform="matrix(0.0551679 0.0551679 -0.0381941 0.0381941 9505.78 8501.14)" width="1328.97" height="295.32"/>
        <rect class="fil4" transform="matrix(0.0350392 0.0350392 -0.0586894 0.0586894 9505.78 8501.14)" width="321.91" height="1249.23"/>
       </g>
       <g>
        <rect class="fil4" transform="matrix(0.0551679 0.0551679 -0.0381941 0.0381941 9381.15 8501.74)" width="1328.97" height="295.32"/>
        <rect class="fil4" transform="matrix(0.0350392 0.0350392 -0.0586894 0.0586894 9381.15 8501.74)" width="321.91" height="1249.23"/>
       </g>
      </g>
     </g>
    </g>
   </g>
   <g>
    <g>
     <g>
      <g>
       <g>
        <rect class="fil4" transform="matrix(0.0551679 0.0551679 -0.0381941 0.0381941 8755.45 8602.93)" width="1328.97" height="295.32"/>
        <rect class="fil4" transform="matrix(0.0350392 0.0350392 -0.0586894 0.0586894 8755.45 8602.93)" width="321.91" height="1249.23"/>
       </g>
       <g>
        <rect class="fil4" transform="matrix(0.0551679 0.0551679 -0.0381941 0.0381941 8630.82 8603.53)" width="1328.97" height="295.32"/>
        <rect class="fil4" transform="matrix(0.0350392 0.0350392 -0.0586894 0.0586894 8630.82 8603.53)" width="321.91" height="1249.23"/>
       </g>
       <g>
        <rect class="fil4" transform="matrix(0.0551679 0.0551679 -0.0381941 0.0381941 8755.45 8501.14)" width="1328.97" height="295.32"/>
        <rect class="fil4" transform="matrix(0.0350392 0.0350392 -0.0586894 0.0586894 8755.45 8501.14)" width="321.91" height="1249.23"/>
       </g>
       <g>
        <rect class="fil4" transform="matrix(0.0551679 0.0551679 -0.0381941 0.0381941 8630.82 8501.74)" width="1328.97" height="295.32"/>
        <rect class="fil4" transform="matrix(0.0350392 0.0350392 -0.0586894 0.0586894 8630.82 8501.74)" width="321.91" height="1249.23"/>
       </g>
      </g>
      <g>
       <g>
        <rect class="fil4" transform="matrix(0.0551679 0.0551679 -0.0381941 0.0381941 9005.78 8602.93)" width="1328.97" height="295.32"/>
        <rect class="fil4" transform="matrix(0.0350392 0.0350392 -0.0586894 0.0586894 9005.78 8602.93)" width="321.91" height="1249.23"/>
       </g>
       <g>
        <rect class="fil4" transform="matrix(0.0551679 0.0551679 -0.0381941 0.0381941 8881.15 8603.53)" width="1328.97" height="295.32"/>
        <rect class="fil4" transform="matrix(0.0350392 0.0350392 -0.0586894 0.0586894 8881.15 8603.53)" width="321.91" height="1249.23"/>
       </g>
       <g>
        <rect class="fil4" transform="matrix(0.0551679 0.0551679 -0.0381941 0.0381941 9005.78 8501.14)" width="1328.97" height="295.32"/>
        <rect class="fil4" transform="matrix(0.0350392 0.0350392 -0.0586894 0.0586894 9005.78 8501.14)" width="321.91" height="1249.23"/>
       </g>
       <g>
        <rect class="fil4" transform="matrix(0.0551679 0.0551679 -0.0381941 0.0381941 8881.15 8501.74)" width="1328.97" height="295.32"/>
        <rect class="fil4" transform="matrix(0.0350392 0.0350392 -0.0586894 0.0586894 8881.15 8501.74)" width="321.91" height="1249.23"/>
       </g>
      </g>
     </g>
     <g>
      <g>
       <g>
        <rect class="fil4" transform="matrix(0.0551679 0.0551679 -0.0381941 0.0381941 8755.45 8602.93)" width="1328.97" height="295.32"/>
        <rect class="fil4" transform="matrix(0.0350392 0.0350392 -0.0586894 0.0586894 8755.45 8602.93)" width="321.91" height="1249.23"/>
       </g>
       <g>
        <rect class="fil4" transform="matrix(0.0551679 0.0551679 -0.0381941 0.0381941 8630.82 8603.53)" width="1328.97" height="295.32"/>
        <rect class="fil4" transform="matrix(0.0350392 0.0350392 -0.0586894 0.0586894 8630.82 8603.53)" width="321.91" height="1249.23"/>
       </g>
       <g>
        <rect class="fil4" transform="matrix(0.0551679 0.0551679 -0.0381941 0.0381941 8755.45 8501.14)" width="1328.97" height="295.32"/>
        <rect class="fil4" transform="matrix(0.0350392 0.0350392 -0.0586894 0.0586894 8755.45 8501.14)" width="321.91" height="1249.23"/>
       </g>
       <g>
        <rect class="fil4" transform="matrix(0.0551679 0.0551679 -0.0381941 0.0381941 8630.82 8501.74)" width="1328.97" height="295.32"/>
        <rect class="fil4" transform="matrix(0.0350392 0.0350392 -0.0586894 0.0586894 8630.82 8501.74)" width="321.91" height="1249.23"/>
       </g>
      </g>
      <g>
       <g>
        <rect class="fil4" transform="matrix(0.0551679 0.0551679 -0.0381941 0.0381941 9005.78 8602.93)" width="1328.97" height="295.32"/>
        <rect class="fil4" transform="matrix(0.0350392 0.0350392 -0.0586894 0.0586894 9005.78 8602.93)" width="321.91" height="1249.23"/>
       </g>
       <g>
        <rect class="fil4" transform="matrix(0.0551679 0.0551679 -0.0381941 0.0381941 8881.15 8603.53)" width="1328.97" height="295.32"/>
        <rect class="fil4" transform="matrix(0.0350392 0.0350392 -0.0586894 0.0586894 8881.15 8603.53)" width="321.91" height="1249.23"/>
       </g>
       <g>
        <rect class="fil4" transform="matrix(0.0551679 0.0551679 -0.0381941 0.0381941 9005.78 8501.14)" width="1328.97" height="295.32"/>
        <rect class="fil4" transform="matrix(0.0350392 0.0350392 -0.0586894 0.0586894 9005.78 8501.14)" width="321.91" height="1249.23"/>
       </g>
       <g>
        <rect class="fil4" transform="matrix(0.0551679 0.0551679 -0.0381941 0.0381941 8881.15 8501.74)" width="1328.97" height="295.32"/>
        <rect class="fil4" transform="matrix(0.0350392 0.0350392 -0.0586894 0.0586894 8881.15 8501.74)" width="321.91" height="1249.23"/>
       </g>
      </g>
     </g>
     <g>
      <g>
       <g>
        <rect class="fil4" transform="matrix(0.0551679 0.0551679 -0.0381941 0.0381941 8255.45 8602.93)" width="1328.97" height="295.32"/>
        <rect class="fil4" transform="matrix(0.0350392 0.0350392 -0.0586894 0.0586894 8255.45 8602.93)" width="321.91" height="1249.23"/>
       </g>
       <g>
        <rect class="fil4" transform="matrix(0.0551679 0.0551679 -0.0381941 0.0381941 8130.82 8603.53)" width="1328.97" height="295.32"/>
        <rect class="fil4" transform="matrix(0.0350392 0.0350392 -0.0586894 0.0586894 8130.82 8603.53)" width="321.91" height="1249.23"/>
       </g>
       <g>
        <rect class="fil4" transform="matrix(0.0551679 0.0551679 -0.0381941 0.0381941 8255.45 8501.14)" width="1328.97" height="295.32"/>
        <rect class="fil4" transform="matrix(0.0350392 0.0350392 -0.0586894 0.0586894 8255.45 8501.14)" width="321.91" height="1249.23"/>
       </g>
       <g>
        <rect class="fil4" transform="matrix(0.0551679 0.0551679 -0.0381941 0.0381941 8130.82 8501.74)" width="1328.97" height="295.32"/>
        <rect class="fil4" transform="matrix(0.0350392 0.0350392 -0.0586894 0.0586894 8130.82 8501.74)" width="321.91" height="1249.23"/>
       </g>
      </g>
      <g>
       <g>
        <rect class="fil4" transform="matrix(0.0551679 0.0551679 -0.0381941 0.0381941 8505.78 8602.93)" width="1328.97" height="295.32"/>
        <rect class="fil4" transform="matrix(0.0350392 0.0350392 -0.0586894 0.0586894 8505.78 8602.93)" width="321.91" height="1249.23"/>
       </g>
       <g>
        <rect class="fil4" transform="matrix(0.0551679 0.0551679 -0.0381941 0.0381941 8381.15 8603.53)" width="1328.97" height="295.32"/>
        <rect class="fil4" transform="matrix(0.0350392 0.0350392 -0.0586894 0.0586894 8381.15 8603.53)" width="321.91" height="1249.23"/>
       </g>
       <g>
        <rect class="fil4" transform="matrix(0.0551679 0.0551679 -0.0381941 0.0381941 8505.78 8501.14)" width="1328.97" height="295.32"/>
        <rect class="fil4" transform="matrix(0.0350392 0.0350392 -0.0586894 0.0586894 8505.78 8501.14)" width="321.91" height="1249.23"/>
       </g>
       <g>
        <rect class="fil4" transform="matrix(0.0551679 0.0551679 -0.0381941 0.0381941 8381.15 8501.74)" width="1328.97" height="295.32"/>
        <rect class="fil4" transform="matrix(0.0350392 0.0350392 -0.0586894 0.0586894 8381.15 8501.74)" width="321.91" height="1249.23"/>
       </g>
      </g>
     </g>
     <g>
      <g>
       <g>
        <rect class="fil4" transform="matrix(0.0551679 0.0551679 -0.0381941 0.0381941 8255.45 8602.93)" width="1328.97" height="295.32"/>
        <rect class="fil4" transform="matrix(0.0350392 0.0350392 -0.0586894 0.0586894 8255.45 8602.93)" width="321.91" height="1249.23"/>
       </g>
       <g>
        <rect class="fil4" transform="matrix(0.0551679 0.0551679 -0.0381941 0.0381941 8130.82 8603.53)" width="1328.97" height="295.32"/>
        <rect class="fil4" transform="matrix(0.0350392 0.0350392 -0.0586894 0.0586894 8130.82 8603.53)" width="321.91" height="1249.23"/>
       </g>
       <g>
        <rect class="fil4" transform="matrix(0.0551679 0.0551679 -0.0381941 0.0381941 8255.45 8501.14)" width="1328.97" height="295.32"/>
        <rect class="fil4" transform="matrix(0.0350392 0.0350392 -0.0586894 0.0586894 8255.45 8501.14)" width="321.91" height="1249.23"/>
       </g>
       <g>
        <rect class="fil4" transform="matrix(0.0551679 0.0551679 -0.0381941 0.0381941 8130.82 8501.74)" width="1328.97" height="295.32"/>
        <rect class="fil4" transform="matrix(0.0350392 0.0350392 -0.0586894 0.0586894 8130.82 8501.74)" width="321.91" height="1249.23"/>
       </g>
      </g>
      <g>
       <g>
        <rect class="fil4" transform="matrix(0.0551679 0.0551679 -0.0381941 0.0381941 8505.78 8602.93)" width="1328.97" height="295.32"/>
        <rect class="fil4" transform="matrix(0.0350392 0.0350392 -0.0586894 0.0586894 8505.78 8602.93)" width="321.91" height="1249.23"/>
       </g>
       <g>
        <rect class="fil4" transform="matrix(0.0551679 0.0551679 -0.0381941 0.0381941 8381.15 8603.53)" width="1328.97" height="295.32"/>
        <rect class="fil4" transform="matrix(0.0350392 0.0350392 -0.0586894 0.0586894 8381.15 8603.53)" width="321.91" height="1249.23"/>
       </g>
       <g>
        <rect class="fil4" transform="matrix(0.0551679 0.0551679 -0.0381941 0.0381941 8505.78 8501.14)" width="1328.97" height="295.32"/>
        <rect class="fil4" transform="matrix(0.0350392 0.0350392 -0.0586894 0.0586894 8505.78 8501.14)" width="321.91" height="1249.23"/>
       </g>
       <g>
        <rect class="fil4" transform="matrix(0.0551679 0.0551679 -0.0381941 0.0381941 8381.15 8501.74)" width="1328.97" height="295.32"/>
        <rect class="fil4" transform="matrix(0.0350392 0.0350392 -0.0586894 0.0586894 8381.15 8501.74)" width="321.91" height="1249.23"/>
       </g>
      </g>
     </g>
    </g>
    <g>
     <g>
      <g>
       <g>
        <rect class="fil4" transform="matrix(0.0551679 0.0551679 -0.0381941 0.0381941 7755.45 8602.93)" width="1328.97" height="295.32"/>
        <rect class="fil4" transform="matrix(0.0350392 0.0350392 -0.0586894 0.0586894 7755.45 8602.93)" width="321.91" height="1249.23"/>
       </g>
       <g>
        <rect class="fil4" transform="matrix(0.0551679 0.0551679 -0.0381941 0.0381941 7630.82 8603.53)" width="1328.97" height="295.32"/>
        <rect class="fil4" transform="matrix(0.0350392 0.0350392 -0.0586894 0.0586894 7630.82 8603.53)" width="321.91" height="1249.23"/>
       </g>
       <g>
        <rect class="fil4" transform="matrix(0.0551679 0.0551679 -0.0381941 0.0381941 7755.45 8501.14)" width="1328.97" height="295.32"/>
        <rect class="fil4" transform="matrix(0.0350392 0.0350392 -0.0586894 0.0586894 7755.45 8501.14)" width="321.91" height="1249.23"/>
       </g>
       <g>
        <rect class="fil4" transform="matrix(0.0551679 0.0551679 -0.0381941 0.0381941 7630.82 8501.74)" width="1328.97" height="295.32"/>
        <rect class="fil4" transform="matrix(0.0350392 0.0350392 -0.0586894 0.0586894 7630.82 8501.74)" width="321.91" height="1249.23"/>
       </g>
      </g>
      <g>
       <g>
        <rect class="fil4" transform="matrix(0.0551679 0.0551679 -0.0381941 0.0381941 8005.78 8602.93)" width="1328.97" height="295.32"/>
        <rect class="fil4" transform="matrix(0.0350392 0.0350392 -0.0586894 0.0586894 8005.78 8602.93)" width="321.91" height="1249.23"/>
       </g>
       <g>
        <rect class="fil4" transform="matrix(0.0551679 0.0551679 -0.0381941 0.0381941 7881.15 8603.53)" width="1328.97" height="295.32"/>
        <rect class="fil4" transform="matrix(0.0350392 0.0350392 -0.0586894 0.0586894 7881.15 8603.53)" width="321.91" height="1249.23"/>
       </g>
       <g>
        <rect class="fil4" transform="matrix(0.0551679 0.0551679 -0.0381941 0.0381941 8005.78 8501.14)" width="1328.97" height="295.32"/>
        <rect class="fil4" transform="matrix(0.0350392 0.0350392 -0.0586894 0.0586894 8005.78 8501.14)" width="321.91" height="1249.23"/>
       </g>
       <g>
        <rect class="fil4" transform="matrix(0.0551679 0.0551679 -0.0381941 0.0381941 7881.15 8501.74)" width="1328.97" height="295.32"/>
        <rect class="fil4" transform="matrix(0.0350392 0.0350392 -0.0586894 0.0586894 7881.15 8501.74)" width="321.91" height="1249.23"/>
       </g>
      </g>
     </g>
     <g>
      <g>
       <g>
        <rect class="fil4" transform="matrix(0.0551679 0.0551679 -0.0381941 0.0381941 7755.45 8602.93)" width="1328.97" height="295.32"/>
        <rect class="fil4" transform="matrix(0.0350392 0.0350392 -0.0586894 0.0586894 7755.45 8602.93)" width="321.91" height="1249.23"/>
       </g>
       <g>
        <rect class="fil4" transform="matrix(0.0551679 0.0551679 -0.0381941 0.0381941 7630.82 8603.53)" width="1328.97" height="295.32"/>
        <rect class="fil4" transform="matrix(0.0350392 0.0350392 -0.0586894 0.0586894 7630.82 8603.53)" width="321.91" height="1249.23"/>
       </g>
       <g>
        <rect class="fil4" transform="matrix(0.0551679 0.0551679 -0.0381941 0.0381941 7755.45 8501.14)" width="1328.97" height="295.32"/>
        <rect class="fil4" transform="matrix(0.0350392 0.0350392 -0.0586894 0.0586894 7755.45 8501.14)" width="321.91" height="1249.23"/>
       </g>
       <g>
        <rect class="fil4" transform="matrix(0.0551679 0.0551679 -0.0381941 0.0381941 7630.82 8501.74)" width="1328.97" height="295.32"/>
        <rect class="fil4" transform="matrix(0.0350392 0.0350392 -0.0586894 0.0586894 7630.82 8501.74)" width="321.91" height="1249.23"/>
       </g>
      </g>
      <g>
       <g>
        <rect class="fil4" transform="matrix(0.0551679 0.0551679 -0.0381941 0.0381941 8005.78 8602.93)" width="1328.97" height="295.32"/>
        <rect class="fil4" transform="matrix(0.0350392 0.0350392 -0.0586894 0.0586894 8005.78 8602.93)" width="321.91" height="1249.23"/>
       </g>
       <g>
        <rect class="fil4" transform="matrix(0.0551679 0.0551679 -0.0381941 0.0381941 7881.15 8603.53)" width="1328.97" height="295.32"/>
        <rect class="fil4" transform="matrix(0.0350392 0.0350392 -0.0586894 0.0586894 7881.15 8603.53)" width="321.91" height="1249.23"/>
       </g>
       <g>
        <rect class="fil4" transform="matrix(0.0551679 0.0551679 -0.0381941 0.0381941 8005.78 8501.14)" width="1328.97" height="295.32"/>
        <rect class="fil4" transform="matrix(0.0350392 0.0350392 -0.0586894 0.0586894 8005.78 8501.14)" width="321.91" height="1249.23"/>
       </g>
       <g>
        <rect class="fil4" transform="matrix(0.0551679 0.0551679 -0.0381941 0.0381941 7881.15 8501.74)" width="1328.97" height="295.32"/>
        <rect class="fil4" transform="matrix(0.0350392 0.0350392 -0.0586894 0.0586894 7881.15 8501.74)" width="321.91" height="1249.23"/>
       </g>
      </g>
     </g>
     <g>
      <g>
       <g>
        <rect class="fil4" transform="matrix(0.0551679 0.0551679 -0.0381941 0.0381941 7255.45 8602.93)" width="1328.97" height="295.32"/>
        <rect class="fil4" transform="matrix(0.0350392 0.0350392 -0.0586894 0.0586894 7255.45 8602.93)" width="321.91" height="1249.23"/>
       </g>
       <g>
        <rect class="fil4" transform="matrix(0.0551679 0.0551679 -0.0381941 0.0381941 7130.82 8603.53)" width="1328.97" height="295.32"/>
        <rect class="fil4" transform="matrix(0.0350392 0.0350392 -0.0586894 0.0586894 7130.82 8603.53)" width="321.91" height="1249.23"/>
       </g>
       <g>
        <rect class="fil4" transform="matrix(0.0551679 0.0551679 -0.0381941 0.0381941 7255.45 8501.14)" width="1328.97" height="295.32"/>
        <rect class="fil4" transform="matrix(0.0350392 0.0350392 -0.0586894 0.0586894 7255.45 8501.14)" width="321.91" height="1249.23"/>
       </g>
       <g>
        <rect class="fil4" transform="matrix(0.0551679 0.0551679 -0.0381941 0.0381941 7130.82 8501.74)" width="1328.97" height="295.32"/>
        <rect class="fil4" transform="matrix(0.0350392 0.0350392 -0.0586894 0.0586894 7130.82 8501.74)" width="321.91" height="1249.23"/>
       </g>
      </g>
      <g>
       <g>
        <rect class="fil4" transform="matrix(0.0551679 0.0551679 -0.0381941 0.0381941 7505.78 8602.93)" width="1328.97" height="295.32"/>
        <rect class="fil4" transform="matrix(0.0350392 0.0350392 -0.0586894 0.0586894 7505.78 8602.93)" width="321.91" height="1249.23"/>
       </g>
       <g>
        <rect class="fil4" transform="matrix(0.0551679 0.0551679 -0.0381941 0.0381941 7381.15 8603.53)" width="1328.97" height="295.32"/>
        <rect class="fil4" transform="matrix(0.0350392 0.0350392 -0.0586894 0.0586894 7381.15 8603.53)" width="321.91" height="1249.23"/>
       </g>
       <g>
        <rect class="fil4" transform="matrix(0.0551679 0.0551679 -0.0381941 0.0381941 7505.78 8501.14)" width="1328.97" height="295.32"/>
        <rect class="fil4" transform="matrix(0.0350392 0.0350392 -0.0586894 0.0586894 7505.78 8501.14)" width="321.91" height="1249.23"/>
       </g>
       <g>
        <rect class="fil4" transform="matrix(0.0551679 0.0551679 -0.0381941 0.0381941 7381.15 8501.74)" width="1328.97" height="295.32"/>
        <rect class="fil4" transform="matrix(0.0350392 0.0350392 -0.0586894 0.0586894 7381.15 8501.74)" width="321.91" height="1249.23"/>
       </g>
      </g>
     </g>
     <g>
      <g>
       <g>
        <rect class="fil4" transform="matrix(0.0551679 0.0551679 -0.0381941 0.0381941 7255.45 8602.93)" width="1328.97" height="295.32"/>
        <rect class="fil4" transform="matrix(0.0350392 0.0350392 -0.0586894 0.0586894 7255.45 8602.93)" width="321.91" height="1249.23"/>
       </g>
       <g>
        <rect class="fil4" transform="matrix(0.0551679 0.0551679 -0.0381941 0.0381941 7130.82 8603.53)" width="1328.97" height="295.32"/>
        <rect class="fil4" transform="matrix(0.0350392 0.0350392 -0.0586894 0.0586894 7130.82 8603.53)" width="321.91" height="1249.23"/>
       </g>
       <g>
        <rect class="fil4" transform="matrix(0.0551679 0.0551679 -0.0381941 0.0381941 7255.45 8501.14)" width="1328.97" height="295.32"/>
        <rect class="fil4" transform="matrix(0.0350392 0.0350392 -0.0586894 0.0586894 7255.45 8501.14)" width="321.91" height="1249.23"/>
       </g>
       <g>
        <rect class="fil4" transform="matrix(0.0551679 0.0551679 -0.0381941 0.0381941 7130.82 8501.74)" width="1328.97" height="295.32"/>
        <rect class="fil4" transform="matrix(0.0350392 0.0350392 -0.0586894 0.0586894 7130.82 8501.74)" width="321.91" height="1249.23"/>
       </g>
      </g>
      <g>
       <g>
        <rect class="fil4" transform="matrix(0.0551679 0.0551679 -0.0381941 0.0381941 7505.78 8602.93)" width="1328.97" height="295.32"/>
        <rect class="fil4" transform="matrix(0.0350392 0.0350392 -0.0586894 0.0586894 7505.78 8602.93)" width="321.91" height="1249.23"/>
       </g>
       <g>
        <rect class="fil4" transform="matrix(0.0551679 0.0551679 -0.0381941 0.0381941 7381.15 8603.53)" width="1328.97" height="295.32"/>
        <rect class="fil4" transform="matrix(0.0350392 0.0350392 -0.0586894 0.0586894 7381.15 8603.53)" width="321.91" height="1249.23"/>
       </g>
       <g>
        <rect class="fil4" transform="matrix(0.0551679 0.0551679 -0.0381941 0.0381941 7505.78 8501.14)" width="1328.97" height="295.32"/>
        <rect class="fil4" transform="matrix(0.0350392 0.0350392 -0.0586894 0.0586894 7505.78 8501.14)" width="321.91" height="1249.23"/>
       </g>
       <g>
        <rect class="fil4" transform="matrix(0.0551679 0.0551679 -0.0381941 0.0381941 7381.15 8501.74)" width="1328.97" height="295.32"/>
        <rect class="fil4" transform="matrix(0.0350392 0.0350392 -0.0586894 0.0586894 7381.15 8501.74)" width="321.91" height="1249.23"/>
       </g>
      </g>
     </g>
    </g>
   </g>
   <g>
    <g>
     <g>
      <g>
       <rect class="fil4" transform="matrix(0.0551679 0.0551679 -0.0381941 0.0381941 6755.45 8602.93)" width="1328.97" height="295.32"/>
       <rect class="fil4" transform="matrix(0.0350392 0.0350392 -0.0586894 0.0586894 6755.45 8602.93)" width="321.91" height="1249.23"/>
      </g>
      <g>
       <rect class="fil4" transform="matrix(0.0551679 0.0551679 -0.0381941 0.0381941 6630.82 8603.53)" width="1328.97" height="295.32"/>
       <rect class="fil4" transform="matrix(0.0350392 0.0350392 -0.0586894 0.0586894 6630.82 8603.53)" width="321.91" height="1249.23"/>
      </g>
      <g>
       <rect class="fil4" transform="matrix(0.0551679 0.0551679 -0.0381941 0.0381941 6755.45 8501.14)" width="1328.97" height="295.32"/>
       <rect class="fil4" transform="matrix(0.0350392 0.0350392 -0.0586894 0.0586894 6755.45 8501.14)" width="321.91" height="1249.23"/>
      </g>
      <g>
       <rect class="fil4" transform="matrix(0.0551679 0.0551679 -0.0381941 0.0381941 6630.82 8501.74)" width="1328.97" height="295.32"/>
       <rect class="fil4" transform="matrix(0.0350392 0.0350392 -0.0586894 0.0586894 6630.82 8501.74)" width="321.91" height="1249.23"/>
      </g>
     </g>
     <g>
      <g>
       <rect class="fil4" transform="matrix(0.0551679 0.0551679 -0.0381941 0.0381941 7005.78 8602.93)" width="1328.97" height="295.32"/>
       <rect class="fil4" transform="matrix(0.0350392 0.0350392 -0.0586894 0.0586894 7005.78 8602.93)" width="321.91" height="1249.23"/>
      </g>
      <g>
       <rect class="fil4" transform="matrix(0.0551679 0.0551679 -0.0381941 0.0381941 6881.15 8603.53)" width="1328.97" height="295.32"/>
       <rect class="fil4" transform="matrix(0.0350392 0.0350392 -0.0586894 0.0586894 6881.15 8603.53)" width="321.91" height="1249.23"/>
      </g>
      <g>
       <rect class="fil4" transform="matrix(0.0551679 0.0551679 -0.0381941 0.0381941 7005.78 8501.14)" width="1328.97" height="295.32"/>
       <rect class="fil4" transform="matrix(0.0350392 0.0350392 -0.0586894 0.0586894 7005.78 8501.14)" width="321.91" height="1249.23"/>
      </g>
      <g>
       <rect class="fil4" transform="matrix(0.0551679 0.0551679 -0.0381941 0.0381941 6881.15 8501.74)" width="1328.97" height="295.32"/>
       <rect class="fil4" transform="matrix(0.0350392 0.0350392 -0.0586894 0.0586894 6881.15 8501.74)" width="321.91" height="1249.23"/>
      </g>
     </g>
    </g>
    <g>
     <g>
      <g>
       <rect class="fil4" transform="matrix(0.0551679 0.0551679 -0.0381941 0.0381941 6755.45 8602.93)" width="1328.97" height="295.32"/>
       <rect class="fil4" transform="matrix(0.0350392 0.0350392 -0.0586894 0.0586894 6755.45 8602.93)" width="321.91" height="1249.23"/>
      </g>
      <g>
       <rect class="fil4" transform="matrix(0.0551679 0.0551679 -0.0381941 0.0381941 6630.82 8603.53)" width="1328.97" height="295.32"/>
       <rect class="fil4" transform="matrix(0.0350392 0.0350392 -0.0586894 0.0586894 6630.82 8603.53)" width="321.91" height="1249.23"/>
      </g>
      <g>
       <rect class="fil4" transform="matrix(0.0551679 0.0551679 -0.0381941 0.0381941 6755.45 8501.14)" width="1328.97" height="295.32"/>
       <rect class="fil4" transform="matrix(0.0350392 0.0350392 -0.0586894 0.0586894 6755.45 8501.14)" width="321.91" height="1249.23"/>
      </g>
      <g>
       <rect class="fil4" transform="matrix(0.0551679 0.0551679 -0.0381941 0.0381941 6630.82 8501.74)" width="1328.97" height="295.32"/>
       <rect class="fil4" transform="matrix(0.0350392 0.0350392 -0.0586894 0.0586894 6630.82 8501.74)" width="321.91" height="1249.23"/>
      </g>
     </g>
     <g>
      <g>
       <rect class="fil4" transform="matrix(0.0551679 0.0551679 -0.0381941 0.0381941 7005.78 8602.93)" width="1328.97" height="295.32"/>
       <rect class="fil4" transform="matrix(0.0350392 0.0350392 -0.0586894 0.0586894 7005.78 8602.93)" width="321.91" height="1249.23"/>
      </g>
      <g>
       <rect class="fil4" transform="matrix(0.0551679 0.0551679 -0.0381941 0.0381941 6881.15 8603.53)" width="1328.97" height="295.32"/>
       <rect class="fil4" transform="matrix(0.0350392 0.0350392 -0.0586894 0.0586894 6881.15 8603.53)" width="321.91" height="1249.23"/>
      </g>
      <g>
       <rect class="fil4" transform="matrix(0.0551679 0.0551679 -0.0381941 0.0381941 7005.78 8501.14)" width="1328.97" height="295.32"/>
       <rect class="fil4" transform="matrix(0.0350392 0.0350392 -0.0586894 0.0586894 7005.78 8501.14)" width="321.91" height="1249.23"/>
      </g>
      <g>
       <rect class="fil4" transform="matrix(0.0551679 0.0551679 -0.0381941 0.0381941 6881.15 8501.74)" width="1328.97" height="295.32"/>
       <rect class="fil4" transform="matrix(0.0350392 0.0350392 -0.0586894 0.0586894 6881.15 8501.74)" width="321.91" height="1249.23"/>
      </g>
     </g>
    </g>
    <g>
     <g>
      <g>
       <rect class="fil4" transform="matrix(0.0551679 0.0551679 -0.0381941 0.0381941 6255.45 8602.93)" width="1328.97" height="295.32"/>
       <rect class="fil4" transform="matrix(0.0350392 0.0350392 -0.0586894 0.0586894 6255.45 8602.93)" width="321.91" height="1249.23"/>
      </g>
      <g>
       <rect class="fil4" transform="matrix(0.0551679 0.0551679 -0.0381941 0.0381941 6130.82 8603.53)" width="1328.97" height="295.32"/>
       <rect class="fil4" transform="matrix(0.0350392 0.0350392 -0.0586894 0.0586894 6130.82 8603.53)" width="321.91" height="1249.23"/>
      </g>
      <g>
       <rect class="fil4" transform="matrix(0.0551679 0.0551679 -0.0381941 0.0381941 6255.45 8501.14)" width="1328.97" height="295.32"/>
       <rect class="fil4" transform="matrix(0.0350392 0.0350392 -0.0586894 0.0586894 6255.45 8501.14)" width="321.91" height="1249.23"/>
      </g>
      <g>
       <rect class="fil4" transform="matrix(0.0551679 0.0551679 -0.0381941 0.0381941 6130.82 8501.74)" width="1328.97" height="295.32"/>
       <rect class="fil4" transform="matrix(0.0350392 0.0350392 -0.0586894 0.0586894 6130.82 8501.74)" width="321.91" height="1249.23"/>
      </g>
     </g>
     <g>
      <g>
       <rect class="fil4" transform="matrix(0.0551679 0.0551679 -0.0381941 0.0381941 6505.78 8602.93)" width="1328.97" height="295.32"/>
       <rect class="fil4" transform="matrix(0.0350392 0.0350392 -0.0586894 0.0586894 6505.78 8602.93)" width="321.91" height="1249.23"/>
      </g>
      <g>
       <rect class="fil4" transform="matrix(0.0551679 0.0551679 -0.0381941 0.0381941 6381.15 8603.53)" width="1328.97" height="295.32"/>
       <rect class="fil4" transform="matrix(0.0350392 0.0350392 -0.0586894 0.0586894 6381.15 8603.53)" width="321.91" height="1249.23"/>
      </g>
      <g>
       <rect class="fil4" transform="matrix(0.0551679 0.0551679 -0.0381941 0.0381941 6505.78 8501.14)" width="1328.97" height="295.32"/>
       <rect class="fil4" transform="matrix(0.0350392 0.0350392 -0.0586894 0.0586894 6505.78 8501.14)" width="321.91" height="1249.23"/>
      </g>
      <g>
       <rect class="fil4" transform="matrix(0.0551679 0.0551679 -0.0381941 0.0381941 6381.15 8501.74)" width="1328.97" height="295.32"/>
       <rect class="fil4" transform="matrix(0.0350392 0.0350392 -0.0586894 0.0586894 6381.15 8501.74)" width="321.91" height="1249.23"/>
      </g>
     </g>
    </g>
    <g>
     <g>
      <g>
       <rect class="fil4" transform="matrix(0.0551679 0.0551679 -0.0381941 0.0381941 6255.45 8602.93)" width="1328.97" height="295.32"/>
       <rect class="fil4" transform="matrix(0.0350392 0.0350392 -0.0586894 0.0586894 6255.45 8602.93)" width="321.91" height="1249.23"/>
      </g>
      <g>
       <rect class="fil4" transform="matrix(0.0551679 0.0551679 -0.0381941 0.0381941 6130.82 8603.53)" width="1328.97" height="295.32"/>
       <rect class="fil4" transform="matrix(0.0350392 0.0350392 -0.0586894 0.0586894 6130.82 8603.53)" width="321.91" height="1249.23"/>
      </g>
      <g>
       <rect class="fil4" transform="matrix(0.0551679 0.0551679 -0.0381941 0.0381941 6255.45 8501.14)" width="1328.97" height="295.32"/>
       <rect class="fil4" transform="matrix(0.0350392 0.0350392 -0.0586894 0.0586894 6255.45 8501.14)" width="321.91" height="1249.23"/>
      </g>
      <g>
       <rect class="fil4" transform="matrix(0.0551679 0.0551679 -0.0381941 0.0381941 6130.82 8501.74)" width="1328.97" height="295.32"/>
       <rect class="fil4" transform="matrix(0.0350392 0.0350392 -0.0586894 0.0586894 6130.82 8501.74)" width="321.91" height="1249.23"/>
      </g>
     </g>
     <g>
      <g>
       <rect class="fil4" transform="matrix(0.0551679 0.0551679 -0.0381941 0.0381941 6505.78 8602.93)" width="1328.97" height="295.32"/>
       <rect class="fil4" transform="matrix(0.0350392 0.0350392 -0.0586894 0.0586894 6505.78 8602.93)" width="321.91" height="1249.23"/>
      </g>
      <g>
       <rect class="fil4" transform="matrix(0.0551679 0.0551679 -0.0381941 0.0381941 6381.15 8603.53)" width="1328.97" height="295.32"/>
       <rect class="fil4" transform="matrix(0.0350392 0.0350392 -0.0586894 0.0586894 6381.15 8603.53)" width="321.91" height="1249.23"/>
      </g>
      <g>
       <rect class="fil4" transform="matrix(0.0551679 0.0551679 -0.0381941 0.0381941 6505.78 8501.14)" width="1328.97" height="295.32"/>
       <rect class="fil4" transform="matrix(0.0350392 0.0350392 -0.0586894 0.0586894 6505.78 8501.14)" width="321.91" height="1249.23"/>
      </g>
      <g>
       <rect class="fil4" transform="matrix(0.0551679 0.0551679 -0.0381941 0.0381941 6381.15 8501.74)" width="1328.97" height="295.32"/>
       <rect class="fil4" transform="matrix(0.0350392 0.0350392 -0.0586894 0.0586894 6381.15 8501.74)" width="321.91" height="1249.23"/>
      </g>
     </g>
    </g>
   </g>
   <g>
    <g>
     <g>
      <rect class="fil4" transform="matrix(0.0551679 0.0551679 -0.0381941 0.0381941 5755.45 8602.93)" width="1328.97" height="295.32"/>
      <rect class="fil4" transform="matrix(0.0350392 0.0350392 -0.0586894 0.0586894 5755.45 8602.93)" width="321.91" height="1249.23"/>
     </g>
     <g>
      <rect class="fil4" transform="matrix(0.0551679 0.0551679 -0.0381941 0.0381941 5630.82 8603.53)" width="1328.97" height="295.32"/>
      <rect class="fil4" transform="matrix(0.0350392 0.0350392 -0.0586894 0.0586894 5630.82 8603.53)" width="321.91" height="1249.23"/>
     </g>
     <g>
      <rect class="fil4" transform="matrix(0.0551679 0.0551679 -0.0381941 0.0381941 5755.45 8501.14)" width="1328.97" height="295.32"/>
      <rect class="fil4" transform="matrix(0.0350392 0.0350392 -0.0586894 0.0586894 5755.45 8501.14)" width="321.91" height="1249.23"/>
     </g>
     <g>
      <rect class="fil4" transform="matrix(0.0551679 0.0551679 -0.0381941 0.0381941 5630.82 8501.74)" width="1328.97" height="295.32"/>
      <rect class="fil4" transform="matrix(0.0350392 0.0350392 -0.0586894 0.0586894 5630.82 8501.74)" width="321.91" height="1249.23"/>
     </g>
    </g>
    <g>
     <g>
      <rect class="fil4" transform="matrix(0.0551679 0.0551679 -0.0381941 0.0381941 6005.78 8602.93)" width="1328.97" height="295.32"/>
      <rect class="fil4" transform="matrix(0.0350392 0.0350392 -0.0586894 0.0586894 6005.78 8602.93)" width="321.91" height="1249.23"/>
     </g>
     <g>
      <rect class="fil4" transform="matrix(0.0551679 0.0551679 -0.0381941 0.0381941 5881.15 8603.53)" width="1328.97" height="295.32"/>
      <rect class="fil4" transform="matrix(0.0350392 0.0350392 -0.0586894 0.0586894 5881.15 8603.53)" width="321.91" height="1249.23"/>
     </g>
     <g>
      <rect class="fil4" transform="matrix(0.0551679 0.0551679 -0.0381941 0.0381941 6005.78 8501.14)" width="1328.97" height="295.32"/>
      <rect class="fil4" transform="matrix(0.0350392 0.0350392 -0.0586894 0.0586894 6005.78 8501.14)" width="321.91" height="1249.23"/>
     </g>
     <g>
      <rect class="fil4" transform="matrix(0.0551679 0.0551679 -0.0381941 0.0381941 5881.15 8501.74)" width="1328.97" height="295.32"/>
      <rect class="fil4" transform="matrix(0.0350392 0.0350392 -0.0586894 0.0586894 5881.15 8501.74)" width="321.91" height="1249.23"/>
     </g>
    </g>
   </g>
   <g>
    <g>
     <rect class="fil4" transform="matrix(0.0551679 0.0551679 -0.0381941 0.0381941 5755.45 8602.93)" width="1328.97" height="295.32"/>
     <rect class="fil4" transform="matrix(0.0350392 0.0350392 -0.0586894 0.0586894 5755.45 8602.93)" width="321.91" height="1249.23"/>
    </g>
    <g>
     <rect class="fil4" transform="matrix(0.0551679 0.0551679 -0.0381941 0.0381941 5630.82 8603.53)" width="1328.97" height="295.32"/>
     <rect class="fil4" transform="matrix(0.0350392 0.0350392 -0.0586894 0.0586894 5630.82 8603.53)" width="321.91" height="1249.23"/>
    </g>
    <g>
     <rect class="fil4" transform="matrix(0.0551679 0.0551679 -0.0381941 0.0381941 5755.45 8501.14)" width="1328.97" height="295.32"/>
     <rect class="fil4" transform="matrix(0.0350392 0.0350392 -0.0586894 0.0586894 5755.45 8501.14)" width="321.91" height="1249.23"/>
    </g>
    <g>
     <rect class="fil4" transform="matrix(0.0551679 0.0551679 -0.0381941 0.0381941 5630.82 8501.74)" width="1328.97" height="295.32"/>
     <rect class="fil4" transform="matrix(0.0350392 0.0350392 -0.0586894 0.0586894 5630.82 8501.74)" width="321.91" height="1249.23"/>
    </g>
   </g>
   <g>
    <g>
     <rect class="fil4" transform="matrix(0.0551679 0.0551679 -0.0381941 0.0381941 6005.78 8602.93)" width="1328.97" height="295.32"/>
     <rect class="fil4" transform="matrix(0.0350392 0.0350392 -0.0586894 0.0586894 6005.78 8602.93)" width="321.91" height="1249.23"/>
    </g>
    <g>
     <rect class="fil4" transform="matrix(0.0551679 0.0551679 -0.0381941 0.0381941 5881.15 8603.53)" width="1328.97" height="295.32"/>
     <rect class="fil4" transform="matrix(0.0350392 0.0350392 -0.0586894 0.0586894 5881.15 8603.53)" width="321.91" height="1249.23"/>
    </g>
    <g>
     <rect class="fil4" transform="matrix(0.0551679 0.0551679 -0.0381941 0.0381941 6005.78 8501.14)" width="1328.97" height="295.32"/>
     <rect class="fil4" transform="matrix(0.0350392 0.0350392 -0.0586894 0.0586894 6005.78 8501.14)" width="321.91" height="1249.23"/>
    </g>
    <g>
     <rect class="fil4" transform="matrix(0.0551679 0.0551679 -0.0381941 0.0381941 5881.15 8501.74)" width="1328.97" height="295.32"/>
     <rect class="fil4" transform="matrix(0.0350392 0.0350392 -0.0586894 0.0586894 5881.15 8501.74)" width="321.91" height="1249.23"/>
    </g>
   </g>
  </g>
 </g>
</svg>
